<?plantuml 1.2026.2?><svg xmlns="http://www.w3.org/2000/svg" xmlns:xlink="http://www.w3.org/1999/xlink" contentStyleType="text/css" data-diagram-type="DESCRIPTION" height="503px" preserveAspectRatio="none" style="width:573px;height:503px;background:#FFFFFF;" version="1.1" viewBox="0 0 573 503" width="573px" zoomAndPan="magnify"><defs/><g><!--cluster Remote--><g class="cluster" data-qualified-name="Remote" data-source-line="19" id="ent0002"><path d="M8.5,6.602 L247.2716,6.602 A3.75,3.75 0 0 1 249.7716,9.102 L256.7716,31.6699 L469.5,31.6699 A2.5,2.5 0 0 1 472,34.1699 L472,301.512 A2.5,2.5 0 0 1 469.5,304.012 L8.5,304.012 A2.5,2.5 0 0 1 6,301.512 L6,9.102 A2.5,2.5 0 0 1 8.5,6.602" fill="#FAFAFA" style="stroke:#000000;stroke-width:1.5;"/><line style="stroke:#000000;stroke-width:1.5;" x1="6" x2="256.7716" y1="31.6699" y2="31.6699"/><text fill="#000000" font-family="sans-serif" font-size="14" font-weight="bold" lengthAdjust="spacing" textLength="237.7716" x="10" y="23.5679">Vzd&#225;len&#233; &#250;lo&#382;i&#353;t&#283; (GitHub servery)</text></g><!--cluster Local--><g class="cluster" data-qualified-name="Local" data-source-line="25" id="ent0006"><path d="M14.5,365.012 L195.9348,365.012 A3.75,3.75 0 0 1 198.4348,367.512 L205.4348,390.0799 L552.5,390.0799 A2.5,2.5 0 0 1 555,392.5799 L555,493.712 A2.5,2.5 0 0 1 552.5,496.212 L14.5,496.212 A2.5,2.5 0 0 1 12,493.712 L12,367.512 A2.5,2.5 0 0 1 14.5,365.012" fill="#FAFAFA" style="stroke:#000000;stroke-width:1.5;"/><line style="stroke:#000000;stroke-width:1.5;" x1="12" x2="205.4348" y1="390.0799" y2="390.0799"/><text fill="#000000" font-family="sans-serif" font-size="14" font-weight="bold" lengthAdjust="spacing" textLength="180.4348" x="16" y="381.9779">Lok&#225;ln&#237; &#250;lo&#382;i&#353;t&#283; (V&#225;&#353; stroj)</text></g><!--entity A--><g class="entity" data-qualified-name="Remote.A" data-source-line="20" id="ent0003"><rect fill="#FFFF00" height="77.2038" rx="4" ry="4" style="stroke:#000000;stroke-width:0.5;" width="132.3776" x="21.81" y="44.602"/><text fill="#000000" font-family="sans-serif" font-size="14" lengthAdjust="spacing" textLength="8.946" x="83.5258" y="69.5679">A</text><text fill="#000000" font-family="sans-serif" font-size="14" lengthAdjust="spacing" textLength="104.4956" x="35.751" y="88.6358">Hlavn&#237; repozit&#225;&#345;</text><text fill="#000000" font-family="sans-serif" font-size="14" lengthAdjust="spacing" textLength="112.3776" x="31.81" y="107.7038">(Main repository)</text></g><!--entity B--><g class="entity" data-qualified-name="Remote.B" data-source-line="21" id="ent0004"><rect fill="#FFFF00" height="77.2038" rx="4" ry="4" style="stroke:#000000;stroke-width:0.5;" width="147.7915" x="308.1" y="44.602"/><text fill="#000000" font-family="sans-serif" font-size="14" lengthAdjust="spacing" textLength="9.1" x="377.4458" y="69.5679">B</text><text fill="#000000" font-family="sans-serif" font-size="14" lengthAdjust="spacing" textLength="123.5355" x="320.228" y="88.6358">Master v&#283;tev forku</text><text fill="#000000" font-family="sans-serif" font-size="14" lengthAdjust="spacing" textLength="127.7915" x="318.1" y="107.7038">hlavn&#237;ho repozit&#225;&#345;e</text></g><!--entity E--><g class="entity" data-qualified-name="Remote.E" data-source-line="22" id="ent0005"><rect fill="#FFFF00" height="77.2038" rx="4" ry="4" style="stroke:#000000;stroke-width:0.5;" width="192.1433" x="21.93" y="210.802"/><text fill="#000000" font-family="sans-serif" font-size="14" lengthAdjust="spacing" textLength="7.784" x="114.1097" y="235.7679">E</text><text fill="#000000" font-family="sans-serif" font-size="14" lengthAdjust="spacing" textLength="172.1433" x="31.93" y="254.8358">Vzd&#225;len&#225; projektov&#225; v&#283;tev</text><text fill="#000000" font-family="sans-serif" font-size="14" lengthAdjust="spacing" textLength="114.0156" x="60.9939" y="273.9038">va&#353;&#237; master v&#283;tve</text></g><!--entity C--><g class="entity" data-qualified-name="Local.C" data-source-line="26" id="ent0007"><rect fill="#FFFF00" height="77.2038" rx="4" ry="4" style="stroke:#000000;stroke-width:0.5;" width="159.7474" x="379.13" y="403.012"/><text fill="#000000" font-family="sans-serif" font-size="14" lengthAdjust="spacing" textLength="8.848" x="454.5797" y="427.9779">C</text><text fill="#000000" font-family="sans-serif" font-size="14" lengthAdjust="spacing" textLength="84.6997" x="416.6539" y="447.0458">Master v&#283;tev</text><text fill="#000000" font-family="sans-serif" font-size="14" lengthAdjust="spacing" textLength="139.7474" x="389.13" y="466.1138">lok&#225;ln&#237;ho klonu forku</text></g><!--entity D--><g class="entity" data-qualified-name="Local.D" data-source-line="27" id="ent0008"><rect fill="#FFFF00" height="77.2038" rx="4" ry="4" style="stroke:#000000;stroke-width:0.5;" width="179.6974" x="28.15" y="403.012"/><text fill="#000000" font-family="sans-serif" font-size="14" lengthAdjust="spacing" textLength="10.22" x="112.8887" y="427.9779">D</text><text fill="#000000" font-family="sans-serif" font-size="14" lengthAdjust="spacing" textLength="159.6974" x="38.15" y="447.0458">Lok&#225;ln&#237; projektov&#225; v&#283;tev</text><text fill="#000000" font-family="sans-serif" font-size="14" lengthAdjust="spacing" textLength="114.0156" x="60.9909" y="466.1138">va&#353;&#237; master v&#283;tve</text></g><!--link A to B--><g class="link" data-entity-1="ent0003" data-entity-2="ent0004" data-link-type="dependency" data-source-line="30" id="lnk9"><path d="M154.64,108.322 C164.57,111.162 174.79,113.612 184.65,115.202 C225.45,121.782 236.77,121.332 277.65,115.202 C287.49,113.732 291.8724,113.0192 301.8524,110.4292" fill="none" id="A-to-B" style="stroke:#4080C0;stroke-width:1;"/><polygon fill="#4080C0" points="307.66,108.922,297.9438,107.311,302.8203,110.178,299.9534,115.0545,307.66,108.922" style="stroke:#4080C0;stroke-width:1;"/><text fill="#000000" font-family="sans-serif" font-size="10" lengthAdjust="spacing" textLength="83.1099" x="189.735" y="97.892">1. Vytvo&#345;en&#237; forku</text><text fill="#000000" font-family="sans-serif" font-size="10" lengthAdjust="spacing" textLength="91.2799" x="185.65" y="111.512">hlavn&#237;ho repozit&#225;&#345;e</text></g><!--link A to B--><g class="link" data-entity-1="ent0003" data-entity-2="ent0004" data-link-type="dependency" data-source-line="34" id="lnk14"><path d="M154.35,83.202 C199.9,83.202 254.43,83.202 301.62,83.202" fill="none" id="A-to-B-1" style="stroke:#4080C0;stroke-width:1;"/><polygon fill="#4080C0" points="307.62,83.202,298.62,79.202,302.62,83.202,298.62,87.202,307.62,83.202" style="stroke:#4080C0;stroke-width:1;"/><text fill="#000000" font-family="sans-serif" font-size="10" lengthAdjust="spacing" textLength="117.5699" x="172.65" y="62.892">5. Push slou&#269;en&#253;ch zm&#283;n</text><text fill="#000000" font-family="sans-serif" font-size="10" lengthAdjust="spacing" textLength="98.5799" x="182.145" y="76.512">z hlavn&#237;ho repozit&#225;&#345;e</text></g><!--link B to C--><g class="link" data-entity-1="ent0004" data-entity-2="ent0007" data-link-type="dependency" data-source-line="31" id="lnk10"><path d="M374.31,122.202 C366.55,168.172 358.17,247.452 377,312.012 C386.75,345.432 404.4795,373.6826 422.9595,397.8926" fill="none" id="B-to-C" style="stroke:#4080C0;stroke-width:1;"/><polygon fill="#4080C0" points="426.6,402.662,424.3188,393.081,423.5662,398.6875,417.9596,397.935,426.6,402.662" style="stroke:#4080C0;stroke-width:1;"/><text fill="#000000" font-family="sans-serif" font-size="10" lengthAdjust="spacing" textLength="65.5099" x="379.78" y="246.592">2. Clone forku</text><text fill="#000000" font-family="sans-serif" font-size="10" lengthAdjust="spacing" textLength="69.0699" x="378" y="260.212">na lok&#225;ln&#237; stroj</text></g><!--link B to C--><g class="link" data-entity-1="ent0004" data-entity-2="ent0007" data-link-type="dependency" data-source-line="33" id="lnk13"><path d="M409.19,122.032 C424.89,146.172 443.23,178.832 452,210.802 C470.01,276.432 467.6384,350.6036 463.7084,396.8136" fill="none" id="B-to-C-1" style="stroke:#4080C0;stroke-width:1;"/><polygon fill="#4080C0" points="463.2,402.792,467.9483,394.1633,463.6237,397.81,459.9771,393.4854,463.2,402.792" style="stroke:#4080C0;stroke-width:1;"/><text fill="#000000" font-family="sans-serif" font-size="10" lengthAdjust="spacing" textLength="97.6699" x="467.175" y="246.592">4. git fetch upstream</text><text fill="#000000" font-family="sans-serif" font-size="10" lengthAdjust="spacing" textLength="98.5799" x="466.72" y="260.212">z hlavn&#237;ho repozit&#225;&#345;e</text></g><!--reverse link D to C--><g class="link" data-entity-1="ent0008" data-entity-2="ent0007" data-link-type="dependency" data-source-line="32" id="lnk12"><path d="M214.04,441.612 C267.02,441.612 327.45,441.612 378.65,441.612" fill="none" id="D-backto-C" style="stroke:#4080C0;stroke-width:1;"/><polygon fill="#4080C0" points="208.04,441.612,217.04,445.612,213.04,441.612,217.04,437.612,208.04,441.612" style="stroke:#4080C0;stroke-width:1;"/><text fill="#000000" font-family="sans-serif" font-size="10" lengthAdjust="spacing" textLength="135.8899" x="225.99" y="408.302">3. Vytvo&#345;en&#237; projektov&#233; v&#283;tve</text><text fill="#000000" font-family="sans-serif" font-size="10" lengthAdjust="spacing" textLength="120.8099" x="238.73" y="421.922">7. P&#345;id&#225;n&#237; soubor&#367; (stage)</text><text fill="#000000" font-family="sans-serif" font-size="10" lengthAdjust="spacing" textLength="61.6799" x="268.295" y="435.5419">8. git commit</text></g><!--reverse link E to D--><g class="link" data-entity-1="ent0005" data-entity-2="ent0008" data-link-type="dependency" data-source-line="35" id="lnk16"><path d="M118,294.442 C118,327.612 118,369.492 118,402.642" fill="none" id="E-backto-D" style="stroke:#4080C0;stroke-width:1;"/><polygon fill="#4080C0" points="118,288.442,114,297.442,118,293.442,122,297.442,118,288.442" style="stroke:#4080C0;stroke-width:1;"/><text fill="#000000" font-family="sans-serif" font-size="10" lengthAdjust="spacing" textLength="78.7199" x="121.655" y="331.702">9. Push commit&#367;</text><text fill="#000000" font-family="sans-serif" font-size="10" lengthAdjust="spacing" textLength="84.03" x="119" y="345.322">do vzd&#225;len&#233; v&#283;tve</text></g><!--reverse link A to E--><g class="link" data-entity-1="ent0003" data-entity-2="ent0005" data-link-type="dependency" data-source-line="36" id="lnk18"><path d="M96.0372,128.1945 C100.8772,154.7145 106.24,184.042 111.08,210.532" fill="none" id="A-backto-E" style="stroke:#4080C0;stroke-width:1;"/><polygon fill="#4080C0" points="94.96,122.292,92.6408,131.8639,95.8577,127.2107,100.5108,130.4276,94.96,122.292" style="stroke:#4080C0;stroke-width:1;"/><text fill="#000000" font-family="sans-serif" font-size="10" lengthAdjust="spacing" textLength="128.0899" x="109.275" y="163.492">10. Vytvo&#345;en&#237; Pull Requestu</text><text fill="#000000" font-family="sans-serif" font-size="10" lengthAdjust="spacing" textLength="135.0399" x="105.8" y="177.112">ze vzd&#225;len&#233; projektov&#233; v&#283;tve</text></g><?plantuml-src dPF1Rjf048RlVefHUaaE82TDrJI7IiQGvf18AAboycM35xDbFKFNQwUXwYFq0QASEEPGvLwflO3VgsCM0fWcKhj82CtkVFF__xBPKE586962aJqhCD4Ildh0goLwmyHGZd58cWoyEk7b-swFJ2pDekxFrxn-GcYtgnSEOb0QEFA-UTdJp17F4Cdp4uFgynyJg-gblMKlrwJZZP61CNIpw3ZqZ_pGhszk8_zou5AD9UolRyMoBt9jFyelDj0gmLIYXHv_IRDsgkiSTqKSAqpWmFUyPGWxL-DuEj4Ifmym_Qcf_AtAYPtTm-u7PK_pQyYaAQIvtTi1aS65JCakarlTtKuGuQaM1Kv_S7L4OsMda_8kmjrpeN1UofIb9IMejxSYF1SPQuPYTczb0Nqompp2WMCEQ9qgvunMdT69yCdA14Q6FicXfO9_EsQ4XIWdB31TJIeSgyDtjGhaZ8PCgQnivd75moUGMIOx6sVK4texYx1c9aAz9BAHeIRCdRyv9AotjoDSAVWd6-tAHW0DevA1RRo75Xp3VXEkRcr175l5Up5NhmMDc6wGMqFWteCcXAnMBhjGm9CJbuCNGaFBVZMiNNMytfosKl-mq1bXvVPj4xhbdUBBcfCeloPJFi9kPla2zjoPeoOaYl_AbARArfKTkis-jBq1v2FM8aKQuHYUCLOBvGtFpxC1P9hosNUM-einutHsZoymsj38HmpeLEgEuTs2uGIMZn761CNgBJc_NcVH5RYkVNypeMwkDJ-gpxdCB2VChtiDiHsVzmS0?></g></svg>