<?plantuml 1.2026.2?><svg xmlns="http://www.w3.org/2000/svg" xmlns:xlink="http://www.w3.org/1999/xlink" contentStyleType="text/css" data-diagram-type="DESCRIPTION" height="561px" preserveAspectRatio="none" style="width:853px;height:561px;background:#FFFFFF;" version="1.1" viewBox="0 0 853 561" width="853px" zoomAndPan="magnify"><defs/><g><!--cluster Remote--><g class="cluster" data-qualified-name="Remote" data-source-line="21" id="ent0002"><path d="M87.5,6.602 L326.2716,6.602 A3.75,3.75 0 0 1 328.7716,9.102 L335.7716,31.6699 L557.5,31.6699 A2.5,2.5 0 0 1 560,34.1699 L560,327.412 A2.5,2.5 0 0 1 557.5,329.912 L87.5,329.912 A2.5,2.5 0 0 1 85,327.412 L85,9.102 A2.5,2.5 0 0 1 87.5,6.602" fill="#FAFAFA" style="stroke:#000000;stroke-width:1.5;"/><line style="stroke:#000000;stroke-width:1.5;" x1="85" x2="335.7716" y1="31.6699" y2="31.6699"/><text fill="#000000" font-family="sans-serif" font-size="14" font-weight="bold" lengthAdjust="spacing" textLength="237.7716" x="89" y="23.5679">Vzd&#225;len&#233; &#250;lo&#382;i&#353;t&#283; (GitHub servery)</text></g><!--cluster Local--><g class="cluster" data-qualified-name="Local" data-source-line="27" id="ent0006"><path d="M8.5,406.912 L189.9348,406.912 A3.75,3.75 0 0 1 192.4348,409.412 L199.4348,431.9799 L728.5,431.9799 A2.5,2.5 0 0 1 731,434.4799 L731,551.612 A2.5,2.5 0 0 1 728.5,554.112 L8.5,554.112 A2.5,2.5 0 0 1 6,551.612 L6,409.412 A2.5,2.5 0 0 1 8.5,406.912" fill="#FAFAFA" style="stroke:#000000;stroke-width:1.5;"/><line style="stroke:#000000;stroke-width:1.5;" x1="6" x2="199.4348" y1="431.9799" y2="431.9799"/><text fill="#000000" font-family="sans-serif" font-size="14" font-weight="bold" lengthAdjust="spacing" textLength="180.4348" x="10" y="423.8779">Lok&#225;ln&#237; &#250;lo&#382;i&#353;t&#283; (V&#225;&#353; stroj)</text></g><!--entity A--><g class="entity" data-qualified-name="Remote.A" data-source-line="22" id="ent0003"><rect fill="#FFFF00" height="77.2038" rx="4" ry="4" style="stroke:#000000;stroke-width:0.5;" width="132.3776" x="108.81" y="52.602"/><text fill="#000000" font-family="sans-serif" font-size="14" lengthAdjust="spacing" textLength="8.946" x="170.5258" y="77.5679">A</text><text fill="#000000" font-family="sans-serif" font-size="14" lengthAdjust="spacing" textLength="104.4956" x="122.751" y="96.6358">Hlavn&#237; repozit&#225;&#345;</text><text fill="#000000" font-family="sans-serif" font-size="14" lengthAdjust="spacing" textLength="112.3776" x="118.81" y="115.7038">(Main repository)</text></g><!--entity B--><g class="entity" data-qualified-name="Remote.B" data-source-line="23" id="ent0004"><rect fill="#FFFF00" height="77.2038" rx="4" ry="4" style="stroke:#000000;stroke-width:0.5;" width="147.7915" x="369.1" y="52.602"/><text fill="#000000" font-family="sans-serif" font-size="14" lengthAdjust="spacing" textLength="9.1" x="438.4458" y="77.5679">B</text><text fill="#000000" font-family="sans-serif" font-size="14" lengthAdjust="spacing" textLength="123.5355" x="381.228" y="96.6358">Master v&#283;tev forku</text><text fill="#000000" font-family="sans-serif" font-size="14" lengthAdjust="spacing" textLength="127.7915" x="379.1" y="115.7038">hlavn&#237;ho repozit&#225;&#345;e</text></g><!--entity E--><g class="entity" data-qualified-name="Remote.E" data-source-line="24" id="ent0005"><rect fill="#FFFF00" height="77.2038" rx="4" ry="4" style="stroke:#000000;stroke-width:0.5;" width="192.1433" x="108.93" y="228.702"/><text fill="#000000" font-family="sans-serif" font-size="14" lengthAdjust="spacing" textLength="7.784" x="201.1097" y="253.6679">E</text><text fill="#000000" font-family="sans-serif" font-size="14" lengthAdjust="spacing" textLength="172.1433" x="118.93" y="272.7358">Vzd&#225;len&#225; projektov&#225; v&#283;tev</text><text fill="#000000" font-family="sans-serif" font-size="14" lengthAdjust="spacing" textLength="114.0156" x="147.9939" y="291.8038">va&#353;&#237; master v&#283;tve</text></g><!--entity DSpace--><g class="entity" data-qualified-name="Local.DSpace" data-source-line="28" id="ent0007"><rect fill="#FAFAFA" height="20" rx="4" ry="4" style="stroke:#FAFAFA;stroke-width:0.5;" width="20" x="30" y="481.512"/></g><!--entity C--><g class="entity" data-qualified-name="Local.C" data-source-line="29" id="ent0008"><rect fill="#FFFF00" height="77.2038" rx="4" ry="4" style="stroke:#000000;stroke-width:0.5;" width="159.7474" x="528.13" y="452.912"/><text fill="#000000" font-family="sans-serif" font-size="14" lengthAdjust="spacing" textLength="8.848" x="603.5797" y="477.8779">C</text><text fill="#000000" font-family="sans-serif" font-size="14" lengthAdjust="spacing" textLength="84.6997" x="565.6539" y="496.9458">Master v&#283;tev</text><text fill="#000000" font-family="sans-serif" font-size="14" lengthAdjust="spacing" textLength="139.7474" x="538.13" y="516.0138">lok&#225;ln&#237;ho klonu forku</text></g><!--entity D--><g class="entity" data-qualified-name="Local.D" data-source-line="30" id="ent0009"><rect fill="#FFFF00" height="77.2038" rx="4" ry="4" style="stroke:#000000;stroke-width:0.5;" width="179.6974" x="172.15" y="452.912"/><text fill="#000000" font-family="sans-serif" font-size="14" lengthAdjust="spacing" textLength="10.22" x="256.8887" y="477.8779">D</text><text fill="#000000" font-family="sans-serif" font-size="14" lengthAdjust="spacing" textLength="159.6974" x="182.15" y="496.9458">Lok&#225;ln&#237; projektov&#225; v&#283;tev</text><text fill="#000000" font-family="sans-serif" font-size="14" lengthAdjust="spacing" textLength="114.0156" x="204.9909" y="516.0138">va&#353;&#237; master v&#283;tve</text></g><!--link Remote to Local--><!--link A to B--><!--link A to B--><g class="link" data-entity-1="ent0003" data-entity-2="ent0004" data-link-type="dependency" data-source-line="43" id="lnk16"><path d="M241.59,91.202 C280.19,91.202 322.88,91.202 362.72,91.202" fill="none" id="A-to-B-1" style="stroke:#4080C0;stroke-width:1;"/><polygon fill="#4080C0" points="368.72,91.202,359.72,87.202,363.72,91.202,359.72,95.202,368.72,91.202" style="stroke:#4080C0;stroke-width:1;"/><text fill="#000000" font-family="sans-serif" font-size="10" lengthAdjust="spacing" textLength="83.1099" x="263.735" y="70.892">1. Vytvo&#345;en&#237; forku</text><text fill="#000000" font-family="sans-serif" font-size="10" lengthAdjust="spacing" textLength="91.2799" x="259.65" y="84.512">hlavn&#237;ho repozit&#225;&#345;e</text></g><!--link A to E--><!--reverse link A to E--><g class="link" data-entity-1="ent0003" data-entity-2="ent0005" data-link-type="dependency" data-source-line="52" id="lnk31"><path d="M182.528,135.895 C187.538,164.995 193.43,199.142 198.45,228.302" fill="none" id="A-backto-E" style="stroke:#4080C0;stroke-width:1;"/><polygon fill="#4080C0" points="181.51,129.982,179.095,139.5302,182.3583,134.9095,186.979,138.1728,181.51,129.982" style="stroke:#4080C0;stroke-width:1;"/><text fill="#000000" font-family="sans-serif" font-size="10" lengthAdjust="spacing" textLength="128.0899" x="195.375" y="171.492">10. Vytvo&#345;en&#237; Pull Requestu</text><text fill="#000000" font-family="sans-serif" font-size="10" lengthAdjust="spacing" textLength="135.0399" x="191.9" y="185.112">ze vzd&#225;len&#233; projektov&#233; v&#283;tve</text></g><!--link E to D--><!--reverse link E to D--><g class="link" data-entity-1="ent0005" data-entity-2="ent0009" data-link-type="dependency" data-source-line="51" id="lnk29"><path d="M216.222,312.0635 C226.722,352.9635 241.83,411.882 252.31,452.722" fill="none" id="E-backto-D" style="stroke:#4080C0;stroke-width:1;"/><polygon fill="#4080C0" points="214.73,306.252,213.0936,315.9639,215.9733,311.0949,220.8423,313.9747,214.73,306.252" style="stroke:#4080C0;stroke-width:1;"/><text fill="#000000" font-family="sans-serif" font-size="10" lengthAdjust="spacing" textLength="78.7199" x="237.155" y="365.602">9. Push commit&#367;</text><text fill="#000000" font-family="sans-serif" font-size="10" lengthAdjust="spacing" textLength="84.03" x="234.5" y="379.222">do vzd&#225;len&#233; v&#283;tve</text></g><!--link B to C--><!--link B to C--><g class="link" data-entity-1="ent0004" data-entity-2="ent0008" data-link-type="dependency" data-source-line="44" id="lnk17"><path d="M483.49,130.182 C506.11,153.632 532.9,185.522 549,218.802 C586.63,296.582 599.9368,392.4566 604.8668,446.6866" fill="none" id="B-to-C-1" style="stroke:#4080C0;stroke-width:1;"/><polygon fill="#4080C0" points="605.41,452.662,608.5788,443.3368,604.9573,447.6825,600.6116,444.0611,605.41,452.662" style="stroke:#4080C0;stroke-width:1;"/><text fill="#000000" font-family="sans-serif" font-size="10" lengthAdjust="spacing" textLength="65.5099" x="591.86" y="264.492">2. Clone forku</text><text fill="#000000" font-family="sans-serif" font-size="10" lengthAdjust="spacing" textLength="69.0699" x="590.08" y="278.112">na lok&#225;ln&#237; stroj</text></g><!--reverse link B to C--><g class="link" data-entity-1="ent0004" data-entity-2="ent0008" data-link-type="dependency" data-source-line="47" id="lnk22"><path d="M522.583,131.9619 C584.723,163.7119 659.28,203.882 668,218.802 C711.89,293.872 664.4,397.702 632.33,452.732" fill="none" id="B-backto-C" style="stroke:#4080C0;stroke-width:1;"/><polygon fill="#4080C0" points="517.24,129.232,523.4345,136.8889,521.6925,131.5069,527.0744,129.7649,517.24,129.232" style="stroke:#4080C0;stroke-width:1;"/><text fill="#000000" font-family="sans-serif" font-size="10" lengthAdjust="spacing" textLength="117.5699" x="686.73" y="264.492">5. Push slou&#269;en&#253;ch zm&#283;n</text><text fill="#000000" font-family="sans-serif" font-size="10" lengthAdjust="spacing" textLength="98.5799" x="696.225" y="278.112">z hlavn&#237;ho repozit&#225;&#345;e</text></g><!--link D to C--><!--reverse link D to C--><g class="link" data-entity-1="ent0009" data-entity-2="ent0008" data-link-type="dependency" data-source-line="45" id="lnk19"><path d="M358.0357,508.2394 C364.5857,509.0394 365.15,508.992 371.49,509.512 C432.17,514.462 447.84,514.952 508.49,509.512 C514.78,508.942 521.28,508.182 527.79,507.292" fill="none" id="D-backto-C" style="stroke:#4080C0;stroke-width:1;"/><polygon fill="#4080C0" points="352.08,507.512,360.5287,512.5736,357.0431,508.1182,361.4986,504.6326,352.08,507.512" style="stroke:#4080C0;stroke-width:1;"/><text fill="#000000" font-family="sans-serif" font-size="10" lengthAdjust="spacing" textLength="135.8899" x="372.49" y="506.202">3. Vytvo&#345;en&#237; projektov&#233; v&#283;tve</text></g><!--reverse link D to C--><g class="link" data-entity-1="ent0009" data-entity-2="ent0008" data-link-type="dependency" data-source-line="48" id="lnk24"><path d="M358,491.512 C412.47,491.512 475.31,491.512 527.89,491.512" fill="none" id="D-backto-C-1" style="stroke:#4080C0;stroke-width:1;"/><polygon fill="#4080C0" points="352,491.512,361,495.512,357,491.512,361,487.512,352,491.512" style="stroke:#4080C0;stroke-width:1;"/><text fill="#000000" font-family="sans-serif" font-size="10" lengthAdjust="spacing" textLength="140.7799" x="369.99" y="485.202">6. Merge zm&#283;n z master v&#283;tve</text></g><!--link A to C--><g class="link" data-entity-1="ent0003" data-entity-2="ent0008" data-link-type="dependency" data-source-line="46" id="lnk20"><path d="M241.64,104.612 C274.79,114.202 312.66,130.922 336,159.802 C388.89,225.272 323.17,276.662 371,345.912 C408.87,400.742 469.4653,436.1119 522.2453,459.2619" fill="none" id="A-to-C" style="stroke:#4080C0;stroke-width:1;"/><polygon fill="#4080C0" points="527.74,461.672,521.1047,454.3938,523.1611,459.6636,517.8913,461.72,527.74,461.672" style="stroke:#4080C0;stroke-width:1;"/><text fill="#000000" font-family="sans-serif" font-size="10" lengthAdjust="spacing" textLength="98.7999" x="381.395" y="230.492">4. Git fetch upstream</text><text fill="#000000" font-family="sans-serif" font-size="10" lengthAdjust="spacing" textLength="98.5799" x="381.505" y="244.112">z hlavn&#237;ho repozit&#225;&#345;e</text><text fill="#000000" font-family="sans-serif" font-size="10" lengthAdjust="spacing" textLength="2.6" x="429.495" y="257.7319">&#160;</text><text fill="#000000" font-family="sans-serif" font-size="10" lengthAdjust="spacing" textLength="2.6" x="429.495" y="271.3519">&#160;</text><text fill="#000000" font-family="sans-serif" font-size="10" lengthAdjust="spacing" textLength="99.4799" x="381.055" y="284.9719">Git merge pro zm&#283;ny</text><text fill="#000000" font-family="sans-serif" font-size="10" lengthAdjust="spacing" textLength="117.5899" x="372" y="298.5919">ze vzd&#225;len&#233;ho repozit&#225;&#345;e</text><text fill="#000000" font-family="sans-serif" font-size="10" lengthAdjust="spacing" textLength="101.3099" x="380.14" y="312.2119">s lok&#225;ln&#237; master v&#283;tv&#237;.</text></g><!--link DSpace to D--><g class="link" data-entity-1="ent0007" data-entity-2="ent0009" data-link-type="association" data-source-line="49" id="lnk26"><path d="M50.41,491.512 C72.23,491.512 124.63,491.512 171.83,491.512" fill="none" id="DSpace-D" style="stroke:#4080C0;stroke-width:1;"/><text fill="#000000" font-family="sans-serif" font-size="10" lengthAdjust="spacing" textLength="86.4099" x="68.08" y="471.202">7. P&#345;id&#225;n&#237; soubor&#367;</text><text fill="#000000" font-family="sans-serif" font-size="10" lengthAdjust="spacing" textLength="74.6199" x="73.975" y="484.822">do stavu staged</text></g><!--link DSpace to D--><g class="link" data-entity-1="ent0007" data-entity-2="ent0009" data-link-type="dependency" data-source-line="50" id="lnk27"><path d="M46.8,501.722 C52.52,509.332 61.46,519.122 72.08,523.512 C88.09,530.132 132.91,525.912 150.08,523.512 C157.18,522.512 158.6032,522.4392 165.8832,520.8792" fill="none" id="DSpace-to-D" style="stroke:#4080C0;stroke-width:1;"/><polygon fill="#4080C0" points="171.75,519.622,162.1117,517.5965,166.861,520.6696,163.7879,525.419,171.75,519.622" style="stroke:#4080C0;stroke-width:1;"/><text fill="#000000" font-family="sans-serif" font-size="10" lengthAdjust="spacing" textLength="76.7299" x="73.08" y="506.202">8. Commit zm&#283;n</text><text fill="#000000" font-family="sans-serif" font-size="10" lengthAdjust="spacing" textLength="48.0999" x="87.395" y="519.822">s popisem</text></g><?plantuml-src dLJBRjD05DtxAwxAWh98v4A1KYGanqaVKYD53Ue6ivZ6ayHaF6F6OvS4yGbyGDLLbbrKx95Wa-I_k3EsOoTEaM0iMT6TEUVSS-uuyIJW4P4a14a7Yl0He_3L0bmjCfYCf4Yuxmec93mvmMNRsPwGFfLvtJRBr4y4L_NgPKOYEPLmP7spuhLcX1fazBYYev__KDJLlfgYbsl1_0r9HqfnaoCExIFRjRStwvGx3lI36OM3wfPFXoHXwZtzeXmMZ7X8kO81lgYidEfbZdl4zmC-GeOgnMKnWjtR_J7nnOsk3mcBgMKLyUrTpVp5d56-k8V5JoPMluFLN2tlOFyqK6V9DSHKfbHEd-q1YL4b5Ah8l9pwdkFnCqPIldZ0QYHcWLhCLxSUt--IW9jI72XHi3ZRy9R7koH6jv0kxnHDOIZa9F7uEECSYoehDHojROwEnzTMvX19yObEb4ZnTyRfyPIivjXWM2gb6LS7frm6SY4coAAjREPnXU9pY1KoPpOkn82mUXPWDjjz9AJ5FNpB0awFAtUoSjxTCkznLdI0nYTCy2JBm_2ws_2snykE_ybsMzlE9zhuC0vyd_AFU4juurtcpRAUGgFHWAvpUkuw5t1wUTxM1SjoIe0CHcE5Y5QrcBDqh4wjrhPQjPfhjUk4hf5PqyCn73JXQgfIWNT0c_th9T4g1JiWzdaJN8oI5YXEO1rpDbJBXGQZGotMreWNcsfbjFTvYBgzWlwm2VYzm92gmHYI20af2Jq-WztTULm_6X5IYPSEoM4MBk_u534KqlKtMSF5bRQh8rqyDBM19CgpUjc4NXAF8MOYMNv7gb_Oc95ulAlD1CmwXbTDw9eU3HXccnT93yv0YWkFYDSelReDq8B9LYJNGgv-UDmN63H94_qUKT_A4UiHczIFS4uY336PlDaO8X45CGsrbB7NoHfxapiScEEvG9bSqM0dHpaPwi3U76ilOGp_rZudD5R9LlYxPlu7?></g></svg>