<?plantuml 1.2026.2?><svg xmlns="http://www.w3.org/2000/svg" xmlns:xlink="http://www.w3.org/1999/xlink" contentStyleType="text/css" data-diagram-type="CLASS" height="925px" preserveAspectRatio="none" style="width:743px;height:925px;background:#FFFFFF;" version="1.1" viewBox="0 0 743 925" width="743px" zoomAndPan="magnify"><title>ER diagram datab&#225;ze</title><defs/><g><g class="title" data-source-line="1"><text fill="#000000" font-family="sans-serif" font-size="14" font-weight="bold" lengthAdjust="spacing" textLength="146.933" x="291.5099" y="24.9659">ER diagram datab&#225;ze</text></g><!--class teams--><g class="entity" data-qualified-name="teams" data-source-line="12" id="ent0002"><rect fill="#F1F1F1" height="132.2717" rx="2.5" ry="2.5" style="stroke:#181818;stroke-width:0.5;" width="293.4549" x="244.82" y="64.9879"/><ellipse cx="366.9975" cy="80.9879" fill="#ADD1B2" rx="11" ry="11" style="stroke:#181818;stroke-width:1;"/><path d="M370.4663,87.4879 L363.1538,87.4879 L363.1538,74.816 L370.4663,74.816 L370.4663,76.691 L365.2006,76.691 L365.2006,79.9567 L370.1538,79.9567 L370.1538,81.816 L365.2006,81.816 L365.2006,85.6129 L370.4663,85.6129 L370.4663,87.4879 Z " fill="#000000"/><text fill="#000000" font-family="sans-serif" font-size="14" lengthAdjust="spacing" textLength="40.5999" x="387.4975" y="86.4199">teams</text><line style="stroke:#181818;stroke-width:0.5;" x1="245.82" x2="537.2749" y1="96.9879" y2="96.9879"/><g data-visibility-modifier="IE_MANDATORY"><ellipse cx="255.82" cy="112.0219" fill="#000000" rx="3" ry="3" style="stroke:#000000;stroke-width:1;"/></g><text fill="#000000" font-family="sans-serif" font-size="14" lengthAdjust="spacing" textLength="111.5096" x="264.82" y="115.9539">team : TEXT &#171;PK&#187;</text><line style="stroke:#181818;stroke-width:1;" x1="245.82" x2="537.2749" y1="124.0558" y2="124.0558"/><text fill="#000000" font-family="sans-serif" font-size="14" lengthAdjust="spacing" textLength="153.7754" x="250.82" y="143.0218">subteam_of : TEXT &#171;FK&#187;</text><text fill="#000000" font-family="sans-serif" font-size="14" lengthAdjust="spacing" textLength="70.9377" x="250.82" y="162.0897">kind : TEXT</text><line style="stroke:#181818;stroke-width:1;" x1="245.82" x2="537.2749" y1="170.1917" y2="170.1917"/><text fill="#000000" font-family="sans-serif" font-size="14" lengthAdjust="spacing" textLength="281.4549" x="250.82" y="189.1576">check_no_self_parent : team != subteam_of</text></g><!--class contributors--><g class="entity" data-qualified-name="contributors" data-source-line="21" id="ent0003"><rect fill="#F1F1F1" height="105.2038" rx="2.5" ry="2.5" style="stroke:#181818;stroke-width:0.5;" width="180.8954" x="435.1" y="257.2579"/><ellipse cx="480.5158" cy="273.2579" fill="#ADD1B2" rx="11" ry="11" style="stroke:#181818;stroke-width:1;"/><path d="M483.9846,279.7579 L476.6721,279.7579 L476.6721,267.086 L483.9846,267.086 L483.9846,268.961 L478.719,268.961 L478.719,272.2267 L483.6721,272.2267 L483.6721,274.086 L478.719,274.086 L478.719,277.8829 L483.9846,277.8829 L483.9846,279.7579 Z " fill="#000000"/><text fill="#000000" font-family="sans-serif" font-size="14" lengthAdjust="spacing" textLength="81.5637" x="501.0158" y="278.6899">contributors</text><line style="stroke:#181818;stroke-width:0.5;" x1="436.1" x2="614.9954" y1="289.2579" y2="289.2579"/><g data-visibility-modifier="IE_MANDATORY"><ellipse cx="446.1" cy="304.2919" fill="#000000" rx="3" ry="3" style="stroke:#000000;stroke-width:1;"/></g><text fill="#000000" font-family="sans-serif" font-size="14" lengthAdjust="spacing" textLength="154.8954" x="455.1" y="308.2239">github_id : BIGINT &#171;PK&#187;</text><line style="stroke:#181818;stroke-width:1;" x1="436.1" x2="614.9954" y1="316.3258" y2="316.3258"/><text fill="#000000" font-family="sans-serif" font-size="14" lengthAdjust="spacing" textLength="129.4855" x="441.1" y="335.2918">github_name : TEXT</text><text fill="#000000" font-family="sans-serif" font-size="14" lengthAdjust="spacing" textLength="80.0797" x="441.1" y="354.3597">name : TEXT</text></g><!--class contributors_teams--><g class="entity" data-qualified-name="contributors_teams" data-source-line="28" id="ent0004"><rect fill="#F1F1F1" height="78.1358" rx="2.5" ry="2.5" style="stroke:#181818;stroke-width:0.5;" width="235.8872" x="139.61" y="270.7979"/><ellipse cx="189.1138" cy="286.7979" fill="#ADD1B2" rx="11" ry="11" style="stroke:#181818;stroke-width:1;"/><path d="M192.5826,293.2979 L185.2701,293.2979 L185.2701,280.626 L192.5826,280.626 L192.5826,282.501 L187.317,282.501 L187.317,285.7667 L192.2701,285.7667 L192.2701,287.626 L187.317,287.626 L187.317,291.4229 L192.5826,291.4229 L192.5826,293.2979 Z " fill="#000000"/><text fill="#000000" font-family="sans-serif" font-size="14" lengthAdjust="spacing" textLength="128.3795" x="209.6138" y="292.2299">contributors_teams</text><line style="stroke:#181818;stroke-width:0.5;" x1="140.61" x2="374.4972" y1="302.7979" y2="302.7979"/><g data-visibility-modifier="IE_MANDATORY"><ellipse cx="150.61" cy="317.8319" fill="#000000" rx="3" ry="3" style="stroke:#000000;stroke-width:1;"/></g><text fill="#000000" font-family="sans-serif" font-size="14" lengthAdjust="spacing" textLength="134.8335" x="159.61" y="321.7639">team : TEXT &#171;PK, FK&#187;</text><g data-visibility-modifier="IE_MANDATORY"><ellipse cx="150.61" cy="336.8998" fill="#000000" rx="3" ry="3" style="stroke:#000000;stroke-width:1;"/></g><text fill="#000000" font-family="sans-serif" font-size="14" lengthAdjust="spacing" textLength="209.8872" x="159.61" y="340.8318">contributor_id : BIGINT &#171;PK, FK&#187;</text></g><!--class issues--><g class="entity" data-qualified-name="issues" data-source-line="34" id="ent0005"><rect fill="#F1F1F1" height="227.6113" rx="2.5" ry="2.5" style="stroke:#181818;stroke-width:0.5;" width="208.7413" x="117.18" y="422.4679"/><ellipse cx="197.1617" cy="438.4679" fill="#ADD1B2" rx="11" ry="11" style="stroke:#181818;stroke-width:1;"/><path d="M200.6305,444.9679 L193.318,444.9679 L193.318,432.296 L200.6305,432.296 L200.6305,434.171 L195.3648,434.171 L195.3648,437.4367 L200.318,437.4367 L200.318,439.296 L195.3648,439.296 L195.3648,443.0929 L200.6305,443.0929 L200.6305,444.9679 Z " fill="#000000"/><text fill="#000000" font-family="sans-serif" font-size="14" lengthAdjust="spacing" textLength="40.2778" x="217.6617" y="443.8999">issues</text><line style="stroke:#181818;stroke-width:0.5;" x1="118.18" x2="324.9213" y1="454.4679" y2="454.4679"/><g data-visibility-modifier="IE_MANDATORY"><ellipse cx="128.18" cy="469.5019" fill="#000000" rx="3" ry="3" style="stroke:#000000;stroke-width:1;"/></g><text fill="#000000" font-family="sans-serif" font-size="14" lengthAdjust="spacing" textLength="145.1375" x="137.18" y="473.4339">repository : TEXT &#171;PK&#187;</text><g data-visibility-modifier="IE_MANDATORY"><ellipse cx="128.18" cy="488.5698" fill="#000000" rx="3" ry="3" style="stroke:#000000;stroke-width:1;"/></g><text fill="#000000" font-family="sans-serif" font-size="14" lengthAdjust="spacing" textLength="126.8395" x="137.18" y="492.5018">issue : BIGINT &#171;PK&#187;</text><line style="stroke:#181818;stroke-width:1;" x1="118.18" x2="324.9213" y1="500.6038" y2="500.6038"/><text fill="#000000" font-family="sans-serif" font-size="14" lengthAdjust="spacing" textLength="107.6316" x="123.18" y="519.5697">is_pr : BOOLEAN</text><text fill="#000000" font-family="sans-serif" font-size="14" lengthAdjust="spacing" textLength="185.3593" x="123.18" y="538.6376">contributor_id : BIGINT &#171;FK&#187;</text><text fill="#000000" font-family="sans-serif" font-size="14" lengthAdjust="spacing" textLength="129.9055" x="123.18" y="557.7055">current_state : TEXT</text><text fill="#000000" font-family="sans-serif" font-size="14" lengthAdjust="spacing" textLength="158.5634" x="123.18" y="576.7734">created_at : TIMESTAMP</text><text fill="#000000" font-family="sans-serif" font-size="14" lengthAdjust="spacing" textLength="164.0374" x="123.18" y="595.8414">updated_at : TIMESTAMP</text><text fill="#000000" font-family="sans-serif" font-size="14" lengthAdjust="spacing" textLength="115.2895" x="123.18" y="614.9093">merge_sha : TEXT</text><line style="stroke:#181818;stroke-width:1;" x1="118.18" x2="324.9213" y1="623.0113" y2="623.0113"/><text fill="#000000" font-family="sans-serif" font-size="14" lengthAdjust="spacing" textLength="196.7413" x="123.18" y="641.9772">(repository, issue) : &#171;UNIQUE&#187;</text></g><!--class issue_event_history--><g class="entity" data-qualified-name="issue_event_history" data-source-line="48" id="ent0006"><rect fill="#F1F1F1" height="189.4754" rx="2.5" ry="2.5" style="stroke:#181818;stroke-width:0.5;" width="331.1007" x="7" y="719.6079"/><ellipse cx="104.2856" cy="735.6079" fill="#ADD1B2" rx="11" ry="11" style="stroke:#181818;stroke-width:1;"/><path d="M107.7544,742.1079 L100.4419,742.1079 L100.4419,729.436 L107.7544,729.436 L107.7544,731.311 L102.4887,731.311 L102.4887,734.5767 L107.4419,734.5767 L107.4419,736.436 L102.4887,736.436 L102.4887,740.2329 L107.7544,740.2329 L107.7544,742.1079 Z " fill="#000000"/><text fill="#000000" font-family="sans-serif" font-size="14" lengthAdjust="spacing" textLength="128.0295" x="124.7856" y="741.0399">issue_event_history</text><line style="stroke:#181818;stroke-width:0.5;" x1="8" x2="337.1007" y1="751.6079" y2="751.6079"/><g data-visibility-modifier="IE_MANDATORY"><ellipse cx="18" cy="766.6419" fill="#000000" rx="3" ry="3" style="stroke:#000000;stroke-width:1;"/></g><text fill="#000000" font-family="sans-serif" font-size="14" lengthAdjust="spacing" textLength="103.4876" x="27" y="770.5739">id : SERIAL &#171;PK&#187;</text><line style="stroke:#181818;stroke-width:1;" x1="8" x2="337.1007" y1="778.6758" y2="778.6758"/><text fill="#000000" font-family="sans-serif" font-size="14" lengthAdjust="spacing" textLength="143.9335" x="13" y="797.6418">repository : TEXT &#171;FK&#187;</text><text fill="#000000" font-family="sans-serif" font-size="14" lengthAdjust="spacing" textLength="125.6355" x="13" y="816.7097">issue : BIGINT &#171;FK&#187;</text><text fill="#000000" font-family="sans-serif" font-size="14" lengthAdjust="spacing" textLength="107.6316" x="13" y="835.7776">is_pr : BOOLEAN</text><text fill="#000000" font-family="sans-serif" font-size="14" lengthAdjust="spacing" textLength="79.1977" x="13" y="854.8455">event : TEXT</text><text fill="#000000" font-family="sans-serif" font-size="14" lengthAdjust="spacing" textLength="160.5934" x="13" y="873.9134">timestamp : TIMESTAMP</text><line style="stroke:#181818;stroke-width:1;" x1="8" x2="337.1007" y1="882.0154" y2="882.0154"/><text fill="#000000" font-family="sans-serif" font-size="14" lengthAdjust="spacing" textLength="319.1007" x="13" y="900.9814">(repository, issue, timestamp, event) : &#171;UNIQUE&#187;</text></g><!--class issue_labels_history--><g class="entity" data-qualified-name="issue_labels_history" data-source-line="60" id="ent0007"><rect fill="#F1F1F1" height="208.5433" rx="2.5" ry="2.5" style="stroke:#181818;stroke-width:0.5;" width="326.0748" x="398.51" y="710.0779"/><ellipse cx="492.4426" cy="726.0779" fill="#ADD1B2" rx="11" ry="11" style="stroke:#181818;stroke-width:1;"/><path d="M495.9114,732.5779 L488.5989,732.5779 L488.5989,719.906 L495.9114,719.906 L495.9114,721.781 L490.6458,721.781 L490.6458,725.0467 L495.5989,725.0467 L495.5989,726.906 L490.6458,726.906 L490.6458,730.7029 L495.9114,730.7029 L495.9114,732.5779 Z " fill="#000000"/><text fill="#000000" font-family="sans-serif" font-size="14" lengthAdjust="spacing" textLength="129.7095" x="512.9426" y="731.5099">issue_labels_history</text><line style="stroke:#181818;stroke-width:0.5;" x1="399.51" x2="723.5848" y1="742.0779" y2="742.0779"/><g data-visibility-modifier="IE_MANDATORY"><ellipse cx="409.51" cy="757.1119" fill="#000000" rx="3" ry="3" style="stroke:#000000;stroke-width:1;"/></g><text fill="#000000" font-family="sans-serif" font-size="14" lengthAdjust="spacing" textLength="103.4876" x="418.51" y="761.0439">id : SERIAL &#171;PK&#187;</text><line style="stroke:#181818;stroke-width:1;" x1="399.51" x2="723.5848" y1="769.1458" y2="769.1458"/><text fill="#000000" font-family="sans-serif" font-size="14" lengthAdjust="spacing" textLength="143.9335" x="404.51" y="788.1118">repository : TEXT &#171;FK&#187;</text><text fill="#000000" font-family="sans-serif" font-size="14" lengthAdjust="spacing" textLength="125.6355" x="404.51" y="807.1797">issue : BIGINT &#171;FK&#187;</text><text fill="#000000" font-family="sans-serif" font-size="14" lengthAdjust="spacing" textLength="107.6316" x="404.51" y="826.2476">is_pr : BOOLEAN</text><text fill="#000000" font-family="sans-serif" font-size="14" lengthAdjust="spacing" textLength="74.1717" x="404.51" y="845.3155">label : TEXT</text><text fill="#000000" font-family="sans-serif" font-size="14" lengthAdjust="spacing" textLength="160.5934" x="404.51" y="864.3834">timestamp : TIMESTAMP</text><text fill="#000000" font-family="sans-serif" font-size="14" lengthAdjust="spacing" textLength="216.6211" x="404.51" y="883.4514">action : TEXT (ADDED|REMOVED)</text><line style="stroke:#181818;stroke-width:1;" x1="399.51" x2="723.5848" y1="891.5533" y2="891.5533"/><text fill="#000000" font-family="sans-serif" font-size="14" lengthAdjust="spacing" textLength="314.0748" x="404.51" y="910.5193">(repository, issue, timestamp, label) : &#171;UNIQUE&#187;</text></g><!--class file_activity--><g class="entity" data-qualified-name="file_activity" data-source-line="73" id="ent0008"><rect fill="#F1F1F1" height="208.5433" rx="2.5" ry="2.5" style="stroke:#181818;stroke-width:0.5;" width="350.8127" x="386.14" y="431.9979"/><ellipse cx="521.1415" cy="447.9979" fill="#ADD1B2" rx="11" ry="11" style="stroke:#181818;stroke-width:1;"/><path d="M524.6103,454.4979 L517.2978,454.4979 L517.2978,441.826 L524.6103,441.826 L524.6103,443.701 L519.3446,443.701 L519.3446,446.9667 L524.2978,446.9667 L524.2978,448.826 L519.3446,448.826 L519.3446,452.6229 L524.6103,452.6229 L524.6103,454.4979 Z " fill="#000000"/><text fill="#000000" font-family="sans-serif" font-size="14" lengthAdjust="spacing" textLength="72.3097" x="541.6415" y="453.4299">file_activity</text><line style="stroke:#181818;stroke-width:0.5;" x1="387.14" x2="735.9527" y1="463.9979" y2="463.9979"/><g data-visibility-modifier="IE_MANDATORY"><ellipse cx="397.14" cy="479.0319" fill="#000000" rx="3" ry="3" style="stroke:#000000;stroke-width:1;"/></g><text fill="#000000" font-family="sans-serif" font-size="14" lengthAdjust="spacing" textLength="103.4876" x="406.14" y="482.9639">id : SERIAL &#171;PK&#187;</text><line style="stroke:#181818;stroke-width:1;" x1="387.14" x2="735.9527" y1="491.0658" y2="491.0658"/><text fill="#000000" font-family="sans-serif" font-size="14" lengthAdjust="spacing" textLength="143.9335" x="392.14" y="510.0318">repository : TEXT &#171;FK&#187;</text><text fill="#000000" font-family="sans-serif" font-size="14" lengthAdjust="spacing" textLength="125.6355" x="392.14" y="529.0997">issue : BIGINT &#171;FK&#187;</text><text fill="#000000" font-family="sans-serif" font-size="14" lengthAdjust="spacing" textLength="98.9096" x="392.14" y="548.1676">file_path : TEXT</text><text fill="#000000" font-family="sans-serif" font-size="14" lengthAdjust="spacing" textLength="151.5354" x="392.14" y="567.2355">contributor_id : BIGINT</text><text fill="#000000" font-family="sans-serif" font-size="14" lengthAdjust="spacing" textLength="123.6615" x="392.14" y="586.3034">activity_type : TEXT</text><text fill="#000000" font-family="sans-serif" font-size="14" lengthAdjust="spacing" textLength="160.5934" x="392.14" y="605.3714">timestamp : TIMESTAMP</text><line style="stroke:#181818;stroke-width:1;" x1="387.14" x2="735.9527" y1="613.4733" y2="613.4733"/><text fill="#000000" font-family="sans-serif" font-size="14" lengthAdjust="spacing" textLength="338.8127" x="392.14" y="632.4393">(repository, issue, timestamp, file_path) : &#171;UNIQUE&#187;</text></g><!--link teams to contributors--><!--link contributors to file_activity--><!--link contributors to file_activity--><g class="link" data-entity-1="ent0003" data-entity-2="ent0008" data-link-type="crowfoot" data-source-line="104" id="lnk22"><path codeLine="104" d="M570.77,370.9479 C570.77,391.5979 570.77,390.0079 570.77,413.8879" fill="none" id="contributors-file_activity-1" style="stroke:#181818;stroke-width:1;"/><line style="stroke:#181818;stroke-width:1;" x1="566.77" x2="574.77" y1="366.9479" y2="366.9479"/><line style="stroke:#181818;stroke-width:1;" x1="566.77" x2="574.77" y1="369.9479" y2="369.9479"/><line style="stroke:#181818;stroke-width:1;" x1="570.77" x2="570.77" y1="370.9479" y2="362.9479"/><line style="stroke:#181818;stroke-width:1;" x1="570.77" x2="576.77" y1="423.8879" y2="431.8879"/><line style="stroke:#181818;stroke-width:1;" x1="570.77" x2="564.77" y1="423.8879" y2="431.8879"/><line style="stroke:#181818;stroke-width:1;" x1="570.77" x2="570.77" y1="423.8879" y2="431.8879"/><ellipse cx="570.77" cy="417.8879" fill="none" rx="4" ry="4" style="stroke:#181818;stroke-width:1;"/></g><!--link file_activity to issue_labels_history--><!--link contributors_teams to issues--><!--link teams to contributors_teams--><g class="link" data-entity-1="ent0002" data-entity-2="ent0004" data-link-type="crowfoot" data-source-line="93" id="lnk15"><path codeLine="93" d="M310.16,205.6779 C310.16,230.1979 310.16,231.1679 310.16,252.5179" fill="none" id="teams-contributors_teams" style="stroke:#181818;stroke-width:1;"/><line style="stroke:#181818;stroke-width:1;" x1="306.16" x2="314.16" y1="201.6779" y2="201.6779"/><line style="stroke:#181818;stroke-width:1;" x1="306.16" x2="314.16" y1="204.6779" y2="204.6779"/><line style="stroke:#181818;stroke-width:1;" x1="310.16" x2="310.16" y1="205.6779" y2="197.6779"/><line style="stroke:#181818;stroke-width:1;" x1="310.16" x2="316.16" y1="262.5179" y2="270.5179"/><line style="stroke:#181818;stroke-width:1;" x1="310.16" x2="304.16" y1="262.5179" y2="270.5179"/><line style="stroke:#181818;stroke-width:1;" x1="310.16" x2="310.16" y1="262.5179" y2="270.5179"/><ellipse cx="310.16" cy="256.5179" fill="none" rx="4" ry="4" style="stroke:#181818;stroke-width:1;"/></g><!--link contributors to issues--><g class="link" data-entity-1="ent0003" data-entity-2="ent0005" data-link-type="crowfoot" data-source-line="94" id="lnk16"><path codeLine="94" d="M480.33,370.8879 C480.33,402.1379 480.33,427.6179 480.33,427.6179 C480.33,427.6179 415.88,427.6179 344.06,427.6179" fill="none" id="contributors-issues" style="stroke:#181818;stroke-width:1;"/><line style="stroke:#181818;stroke-width:1;" x1="476.33" x2="484.33" y1="366.8879" y2="366.8879"/><line style="stroke:#181818;stroke-width:1;" x1="476.33" x2="484.33" y1="369.8879" y2="369.8879"/><line style="stroke:#181818;stroke-width:1;" x1="480.33" x2="480.33" y1="370.8879" y2="362.8879"/><line style="stroke:#181818;stroke-width:1;" x1="334.06" x2="326.06" y1="427.6179" y2="433.6179"/><line style="stroke:#181818;stroke-width:1;" x1="334.06" x2="326.06" y1="427.6179" y2="421.6179"/><line style="stroke:#181818;stroke-width:1;" x1="334.06" x2="326.06" y1="427.6179" y2="427.6179"/><ellipse cx="340.06" cy="427.6179" fill="none" rx="4" ry="4" style="stroke:#181818;stroke-width:1;"/></g><!--link issues to issue_event_history--><g class="link" data-entity-1="ent0005" data-entity-2="ent0006" data-link-type="crowfoot" data-source-line="97" id="lnk17"><path codeLine="97" d="M186.76,658.1779 C186.76,681.1279 186.76,679.0179 186.76,701.2379" fill="none" id="issues-issue_event_history" style="stroke:#181818;stroke-width:1;"/><line style="stroke:#181818;stroke-width:1;" x1="182.76" x2="190.76" y1="654.1779" y2="654.1779"/><line style="stroke:#181818;stroke-width:1;" x1="182.76" x2="190.76" y1="657.1779" y2="657.1779"/><line style="stroke:#181818;stroke-width:1;" x1="186.76" x2="186.76" y1="658.1779" y2="650.1779"/><line style="stroke:#181818;stroke-width:1;" x1="186.76" x2="192.76" y1="711.2379" y2="719.2379"/><line style="stroke:#181818;stroke-width:1;" x1="186.76" x2="180.76" y1="711.2379" y2="719.2379"/><line style="stroke:#181818;stroke-width:1;" x1="186.76" x2="186.76" y1="711.2379" y2="719.2379"/><ellipse cx="186.76" cy="705.2379" fill="none" rx="4" ry="4" style="stroke:#181818;stroke-width:1;"/></g><!--link issues to issue_labels_history--><g class="link" data-entity-1="ent0005" data-entity-2="ent0007" data-link-type="crowfoot" data-source-line="98" id="lnk18"><path codeLine="98" d="M256.34,658.4779 C256.34,693.3279 256.34,714.6179 256.34,714.6179 C256.34,714.6179 307.66,714.6179 380.22,714.6179" fill="none" id="issues-issue_labels_history" style="stroke:#181818;stroke-width:1;"/><line style="stroke:#181818;stroke-width:1;" x1="252.34" x2="260.34" y1="654.4779" y2="654.4779"/><line style="stroke:#181818;stroke-width:1;" x1="252.34" x2="260.34" y1="657.4779" y2="657.4779"/><line style="stroke:#181818;stroke-width:1;" x1="256.34" x2="256.34" y1="658.4779" y2="650.4779"/><line style="stroke:#181818;stroke-width:1;" x1="390.22" x2="398.22" y1="714.6179" y2="708.6179"/><line style="stroke:#181818;stroke-width:1;" x1="390.22" x2="398.22" y1="714.6179" y2="720.6179"/><line style="stroke:#181818;stroke-width:1;" x1="390.22" x2="398.22" y1="714.6179" y2="714.6179"/><ellipse cx="384.22" cy="714.6179" fill="none" rx="4" ry="4" style="stroke:#181818;stroke-width:1;"/></g><!--link issues to file_activity--><g class="link" data-entity-1="ent0005" data-entity-2="ent0008" data-link-type="crowfoot" data-source-line="99" id="lnk19"><path codeLine="99" d="M334.34,536.6179 C353.26,536.6179 347.46,536.6179 367.77,536.6179" fill="none" id="issues-file_activity" style="stroke:#181818;stroke-width:1;"/><line style="stroke:#181818;stroke-width:1;" x1="330.34" x2="330.34" y1="540.6179" y2="532.6179"/><line style="stroke:#181818;stroke-width:1;" x1="333.34" x2="333.34" y1="540.6179" y2="532.6179"/><line style="stroke:#181818;stroke-width:1;" x1="334.34" x2="326.34" y1="536.6179" y2="536.6179"/><line style="stroke:#181818;stroke-width:1;" x1="377.77" x2="385.77" y1="536.6179" y2="530.6179"/><line style="stroke:#181818;stroke-width:1;" x1="377.77" x2="385.77" y1="536.6179" y2="542.6179"/><line style="stroke:#181818;stroke-width:1;" x1="377.77" x2="385.77" y1="536.6179" y2="536.6179"/><ellipse cx="371.77" cy="536.6179" fill="none" rx="4" ry="4" style="stroke:#181818;stroke-width:1;"/></g><!--link contributors_teams to contributors--><g class="link" data-entity-1="ent0004" data-entity-2="ent0003" data-link-type="crowfoot" data-source-line="103" id="lnk21"><path codeLine="103" d="M393.88,309.6179 C413.65,309.6179 407.88,309.6179 426.82,309.6179" fill="none" id="contributors_teams-contributors" style="stroke:#181818;stroke-width:1;"/><line style="stroke:#181818;stroke-width:1;" x1="383.88" x2="375.88" y1="309.6179" y2="315.6179"/><line style="stroke:#181818;stroke-width:1;" x1="383.88" x2="375.88" y1="309.6179" y2="303.6179"/><line style="stroke:#181818;stroke-width:1;" x1="383.88" x2="375.88" y1="309.6179" y2="309.6179"/><ellipse cx="389.88" cy="309.6179" fill="none" rx="4" ry="4" style="stroke:#181818;stroke-width:1;"/><line style="stroke:#181818;stroke-width:1;" x1="430.82" x2="430.82" y1="305.6179" y2="313.6179"/><line style="stroke:#181818;stroke-width:1;" x1="427.82" x2="427.82" y1="305.6179" y2="313.6179"/><line style="stroke:#181818;stroke-width:1;" x1="426.82" x2="434.82" y1="309.6179" y2="309.6179"/></g><!--link teams to teams--><g class="link" data-entity-1="ent0002" data-entity-2="ent0002" data-link-type="crowfoot" data-source-line="105" id="lnk23"><path codeLine="105" d="M391.55,56.5379 C391.55,46.0679 391.55,46.6179 391.55,46.6179 C391.55,46.6179 577.14,46.6179 577.14,46.6179 C577.14,46.6179 577.14,227.6179 577.14,227.6179 C577.14,227.6179 503.89,227.6179 503.89,227.6179 C503.89,227.6179 503.89,232.3279 503.89,215.6179" fill="none" id="teams-teams" style="stroke:#181818;stroke-width:1;"/><line style="stroke:#181818;stroke-width:1;" x1="395.55" x2="387.55" y1="60.5379" y2="60.5379"/><line style="stroke:#181818;stroke-width:1;" x1="395.55" x2="387.55" y1="57.5379" y2="57.5379"/><line style="stroke:#181818;stroke-width:1;" x1="391.55" x2="391.55" y1="56.5379" y2="64.5379"/><line style="stroke:#181818;stroke-width:1;" x1="503.89" x2="497.89" y1="205.6179" y2="197.6179"/><line style="stroke:#181818;stroke-width:1;" x1="503.89" x2="509.89" y1="205.6179" y2="197.6179"/><line style="stroke:#181818;stroke-width:1;" x1="503.89" x2="503.89" y1="205.6179" y2="197.6179"/><ellipse cx="503.89" cy="211.6179" fill="none" rx="4" ry="4" style="stroke:#181818;stroke-width:1;"/><text fill="#000000" font-family="sans-serif" font-size="13" lengthAdjust="spacing" textLength="71.8381" x="586.52" y="77.8849">subteam_of</text></g><?plantuml-src lLP9Rjim5Dth5B_UP805TDL5u0P8OQKmciIfCw10KGYqz6qnbac1fDnAIO-G0nHPUTb5aHEa6zltAZNOrc0ZMRJTIEIVtd-F52b5bOzWzS2bP2Z865oYI7ysZT4mFEeYZ55vt9NPH2eKo5KKe3JaYBA092a-PPZOW0iTQnWxS3r_K8lfx9VEZb5440WEmU87UZwwZ4jLI6RSHOa1l7bTC0h2HhbHLslZW3Bg821JL1dfCuA6GZAM3I0IqX7S6W3xwHWEuDBwT0cjrlc7mqDjDatza64_STfyiFOVPtuDxER6PRJZeJEo6RSb-WDRjwLXTKXQ_jNRGZ7Zkx5goU5C2TeF5HTPPqL3tk2GAY_ispG1VDTvtpchzfa7C3B6TK_5sHP0Uor8tRn5dIOSVu0KUh-OLEjk6QUXLzXKoX0pl6oOOmWCkAIwIbHRX_qiSXjpAkr09CvkzyGwEajMOMjF-SeveKXMnfQAg89SZa0zTssIhDbbvzIwk3mwFTUEC70tEyOeXcXBZrJsmUwQJZFhVaz7j5fNPvsFLrOcIKaH6oT9GnwLISvQdh8zrohbT67rEaSd5IqsgPXphccuibVbIo7NX1GTenPg75IuRo7QN2SqirBFKVT97tsvWNlPyN_8fvZFaoUEefmjSNQFscshVTUpJhlNLdllXUAaKDl56L0VxGHdegUfAYNBlv0Z1GY8yWhVnEPlAPSWQSHEJ_6_ibrM-7LLTdG1quJhY8KECdr921xxVF4x7GTyp1tzbYCHgTcJuy64nDXFKupi93C_wxl8HVR5vL-PMJhhZD9vMmaiQMvit9UhZ32en8EHdt6baFevkw9t7CNK6Sr-wiNpYRwxTWEVpQOmlvzD1TahyhcxCzC6-UscUYL6XT2idGIkn-E0k91neAWbT9VUlETgMlaesXfL5gSG9kZGKqbSMT8bzHC-h53NLxy85rC-8JKDTg3hIgKl_Fa3Yo3kHmhdzqmdkpuFFVrM-4tfBQQtPh8L-X7S8DmGoMPF48EFGsHk10HquNYoU0Ifqm9dyLWJplHneCmNgfnJh7DSBLaX8hCTGAFmLz0mZ3y0?></g></svg>