<?plantuml 1.2026.2?><svg xmlns="http://www.w3.org/2000/svg" xmlns:xlink="http://www.w3.org/1999/xlink" contentStyleType="text/css" data-diagram-type="CLASS" height="906px" preserveAspectRatio="none" style="width:743px;height:906px;background:#FFFFFF;" version="1.1" viewBox="0 0 743 906" width="743px" zoomAndPan="magnify"><title>ER diagram datab&#225;ze</title><defs/><g><g class="title" data-source-line="1"><text fill="#000000" font-family="sans-serif" font-size="14" font-weight="bold" lengthAdjust="spacing" textLength="146.933" x="291.5099" y="24.9659">ER diagram datab&#225;ze</text></g><!--class teams--><g class="entity" data-qualified-name="teams" data-source-line="12" id="ent0002"><rect fill="#F1F1F1" height="132.2717" rx="2.5" ry="2.5" style="stroke:#181818;stroke-width:0.5;" width="293.4549" x="244.82" y="64.8579"/><ellipse cx="366.9975" cy="80.8579" fill="#ADD1B2" rx="11" ry="11" style="stroke:#181818;stroke-width:1;"/><path d="M370.4663,87.3579 L363.1538,87.3579 L363.1538,74.686 L370.4663,74.686 L370.4663,76.561 L365.2006,76.561 L365.2006,79.8267 L370.1538,79.8267 L370.1538,81.686 L365.2006,81.686 L365.2006,85.4829 L370.4663,85.4829 L370.4663,87.3579 Z " fill="#000000"/><text fill="#000000" font-family="sans-serif" font-size="14" lengthAdjust="spacing" textLength="40.5999" x="387.4975" y="86.2899">teams</text><line style="stroke:#181818;stroke-width:0.5;" x1="245.82" x2="537.2749" y1="96.8579" y2="96.8579"/><g data-visibility-modifier="IE_MANDATORY"><ellipse cx="255.82" cy="111.8919" fill="#000000" rx="3" ry="3" style="stroke:#000000;stroke-width:1;"/></g><text fill="#000000" font-family="sans-serif" font-size="14" lengthAdjust="spacing" textLength="111.5096" x="264.82" y="115.8239">team : TEXT &#171;PK&#187;</text><line style="stroke:#181818;stroke-width:1;" x1="245.82" x2="537.2749" y1="123.9258" y2="123.9258"/><text fill="#000000" font-family="sans-serif" font-size="14" lengthAdjust="spacing" textLength="153.7754" x="250.82" y="142.8918">subteam_of : TEXT &#171;FK&#187;</text><text fill="#000000" font-family="sans-serif" font-size="14" lengthAdjust="spacing" textLength="70.9377" x="250.82" y="161.9597">kind : TEXT</text><line style="stroke:#181818;stroke-width:1;" x1="245.82" x2="537.2749" y1="170.0617" y2="170.0617"/><text fill="#000000" font-family="sans-serif" font-size="14" lengthAdjust="spacing" textLength="281.4549" x="250.82" y="189.0276">check_no_self_parent : team != subteam_of</text></g><!--class contributors--><g class="entity" data-qualified-name="contributors" data-source-line="21" id="ent0003"><rect fill="#F1F1F1" height="105.2038" rx="2.5" ry="2.5" style="stroke:#181818;stroke-width:0.5;" width="180.8954" x="435.1" y="257.1279"/><ellipse cx="480.5158" cy="273.1279" fill="#ADD1B2" rx="11" ry="11" style="stroke:#181818;stroke-width:1;"/><path d="M483.9846,279.6279 L476.6721,279.6279 L476.6721,266.956 L483.9846,266.956 L483.9846,268.831 L478.719,268.831 L478.719,272.0967 L483.6721,272.0967 L483.6721,273.956 L478.719,273.956 L478.719,277.7529 L483.9846,277.7529 L483.9846,279.6279 Z " fill="#000000"/><text fill="#000000" font-family="sans-serif" font-size="14" lengthAdjust="spacing" textLength="81.5637" x="501.0158" y="278.5599">contributors</text><line style="stroke:#181818;stroke-width:0.5;" x1="436.1" x2="614.9954" y1="289.1279" y2="289.1279"/><g data-visibility-modifier="IE_MANDATORY"><ellipse cx="446.1" cy="304.1619" fill="#000000" rx="3" ry="3" style="stroke:#000000;stroke-width:1;"/></g><text fill="#000000" font-family="sans-serif" font-size="14" lengthAdjust="spacing" textLength="154.8954" x="455.1" y="308.0939">github_id : BIGINT &#171;PK&#187;</text><line style="stroke:#181818;stroke-width:1;" x1="436.1" x2="614.9954" y1="316.1958" y2="316.1958"/><text fill="#000000" font-family="sans-serif" font-size="14" lengthAdjust="spacing" textLength="129.4855" x="441.1" y="335.1618">github_name : TEXT</text><text fill="#000000" font-family="sans-serif" font-size="14" lengthAdjust="spacing" textLength="80.0797" x="441.1" y="354.2297">name : TEXT</text></g><!--class contributors_teams--><g class="entity" data-qualified-name="contributors_teams" data-source-line="28" id="ent0004"><rect fill="#F1F1F1" height="78.1358" rx="2.5" ry="2.5" style="stroke:#181818;stroke-width:0.5;" width="235.8872" x="139.61" y="270.6579"/><ellipse cx="189.1138" cy="286.6579" fill="#ADD1B2" rx="11" ry="11" style="stroke:#181818;stroke-width:1;"/><path d="M192.5826,293.1579 L185.2701,293.1579 L185.2701,280.486 L192.5826,280.486 L192.5826,282.361 L187.317,282.361 L187.317,285.6267 L192.2701,285.6267 L192.2701,287.486 L187.317,287.486 L187.317,291.2829 L192.5826,291.2829 L192.5826,293.1579 Z " fill="#000000"/><text fill="#000000" font-family="sans-serif" font-size="14" lengthAdjust="spacing" textLength="128.3795" x="209.6138" y="292.0899">contributors_teams</text><line style="stroke:#181818;stroke-width:0.5;" x1="140.61" x2="374.4972" y1="302.6579" y2="302.6579"/><g data-visibility-modifier="IE_MANDATORY"><ellipse cx="150.61" cy="317.6919" fill="#000000" rx="3" ry="3" style="stroke:#000000;stroke-width:1;"/></g><text fill="#000000" font-family="sans-serif" font-size="14" lengthAdjust="spacing" textLength="134.8335" x="159.61" y="321.6239">team : TEXT &#171;PK, FK&#187;</text><g data-visibility-modifier="IE_MANDATORY"><ellipse cx="150.61" cy="336.7598" fill="#000000" rx="3" ry="3" style="stroke:#000000;stroke-width:1;"/></g><text fill="#000000" font-family="sans-serif" font-size="14" lengthAdjust="spacing" textLength="209.8872" x="159.61" y="340.6918">contributor_id : BIGINT &#171;PK, FK&#187;</text></g><!--class issues--><g class="entity" data-qualified-name="issues" data-source-line="34" id="ent0005"><rect fill="#F1F1F1" height="208.5433" rx="2.5" ry="2.5" style="stroke:#181818;stroke-width:0.5;" width="208.7413" x="117.18" y="422.3279"/><ellipse cx="197.1617" cy="438.3279" fill="#ADD1B2" rx="11" ry="11" style="stroke:#181818;stroke-width:1;"/><path d="M200.6305,444.8279 L193.318,444.8279 L193.318,432.156 L200.6305,432.156 L200.6305,434.031 L195.3648,434.031 L195.3648,437.2967 L200.318,437.2967 L200.318,439.156 L195.3648,439.156 L195.3648,442.9529 L200.6305,442.9529 L200.6305,444.8279 Z " fill="#000000"/><text fill="#000000" font-family="sans-serif" font-size="14" lengthAdjust="spacing" textLength="40.2778" x="217.6617" y="443.7599">issues</text><line style="stroke:#181818;stroke-width:0.5;" x1="118.18" x2="324.9213" y1="454.3279" y2="454.3279"/><g data-visibility-modifier="IE_MANDATORY"><ellipse cx="128.18" cy="469.3619" fill="#000000" rx="3" ry="3" style="stroke:#000000;stroke-width:1;"/></g><text fill="#000000" font-family="sans-serif" font-size="14" lengthAdjust="spacing" textLength="145.1375" x="137.18" y="473.2939">repository : TEXT &#171;PK&#187;</text><g data-visibility-modifier="IE_MANDATORY"><ellipse cx="128.18" cy="488.4298" fill="#000000" rx="3" ry="3" style="stroke:#000000;stroke-width:1;"/></g><text fill="#000000" font-family="sans-serif" font-size="14" lengthAdjust="spacing" textLength="126.8395" x="137.18" y="492.3618">issue : BIGINT &#171;PK&#187;</text><line style="stroke:#181818;stroke-width:1;" x1="118.18" x2="324.9213" y1="500.4638" y2="500.4638"/><text fill="#000000" font-family="sans-serif" font-size="14" lengthAdjust="spacing" textLength="107.6316" x="123.18" y="519.4297">is_pr : BOOLEAN</text><text fill="#000000" font-family="sans-serif" font-size="14" lengthAdjust="spacing" textLength="185.3593" x="123.18" y="538.4976">contributor_id : BIGINT &#171;FK&#187;</text><text fill="#000000" font-family="sans-serif" font-size="14" lengthAdjust="spacing" textLength="129.9055" x="123.18" y="557.5655">current_state : TEXT</text><text fill="#000000" font-family="sans-serif" font-size="14" lengthAdjust="spacing" textLength="160.5934" x="123.18" y="576.6334">timestamp : TIMESTAMP</text><text fill="#000000" font-family="sans-serif" font-size="14" lengthAdjust="spacing" textLength="115.2895" x="123.18" y="595.7014">merge_sha : TEXT</text><line style="stroke:#181818;stroke-width:1;" x1="118.18" x2="324.9213" y1="603.8033" y2="603.8033"/><text fill="#000000" font-family="sans-serif" font-size="14" lengthAdjust="spacing" textLength="196.7413" x="123.18" y="622.7693">(repository, issue) : &#171;UNIQUE&#187;</text></g><!--class issue_event_history--><g class="entity" data-qualified-name="issue_event_history" data-source-line="47" id="ent0006"><rect fill="#F1F1F1" height="189.4754" rx="2.5" ry="2.5" style="stroke:#181818;stroke-width:0.5;" width="331.1007" x="7" y="700.4079"/><ellipse cx="104.2856" cy="716.4079" fill="#ADD1B2" rx="11" ry="11" style="stroke:#181818;stroke-width:1;"/><path d="M107.7544,722.9079 L100.4419,722.9079 L100.4419,710.236 L107.7544,710.236 L107.7544,712.111 L102.4887,712.111 L102.4887,715.3767 L107.4419,715.3767 L107.4419,717.236 L102.4887,717.236 L102.4887,721.0329 L107.7544,721.0329 L107.7544,722.9079 Z " fill="#000000"/><text fill="#000000" font-family="sans-serif" font-size="14" lengthAdjust="spacing" textLength="128.0295" x="124.7856" y="721.8399">issue_event_history</text><line style="stroke:#181818;stroke-width:0.5;" x1="8" x2="337.1007" y1="732.4079" y2="732.4079"/><g data-visibility-modifier="IE_MANDATORY"><ellipse cx="18" cy="747.4419" fill="#000000" rx="3" ry="3" style="stroke:#000000;stroke-width:1;"/></g><text fill="#000000" font-family="sans-serif" font-size="14" lengthAdjust="spacing" textLength="103.4876" x="27" y="751.3739">id : SERIAL &#171;PK&#187;</text><line style="stroke:#181818;stroke-width:1;" x1="8" x2="337.1007" y1="759.4758" y2="759.4758"/><text fill="#000000" font-family="sans-serif" font-size="14" lengthAdjust="spacing" textLength="143.9335" x="13" y="778.4418">repository : TEXT &#171;FK&#187;</text><text fill="#000000" font-family="sans-serif" font-size="14" lengthAdjust="spacing" textLength="125.6355" x="13" y="797.5097">issue : BIGINT &#171;FK&#187;</text><text fill="#000000" font-family="sans-serif" font-size="14" lengthAdjust="spacing" textLength="107.6316" x="13" y="816.5776">is_pr : BOOLEAN</text><text fill="#000000" font-family="sans-serif" font-size="14" lengthAdjust="spacing" textLength="79.1977" x="13" y="835.6455">event : TEXT</text><text fill="#000000" font-family="sans-serif" font-size="14" lengthAdjust="spacing" textLength="160.5934" x="13" y="854.7134">timestamp : TIMESTAMP</text><line style="stroke:#181818;stroke-width:1;" x1="8" x2="337.1007" y1="862.8154" y2="862.8154"/><text fill="#000000" font-family="sans-serif" font-size="14" lengthAdjust="spacing" textLength="319.1007" x="13" y="881.7814">(repository, issue, timestamp, event) : &#171;UNIQUE&#187;</text></g><!--class issue_labels_history--><g class="entity" data-qualified-name="issue_labels_history" data-source-line="59" id="ent0007"><rect fill="#F1F1F1" height="208.5433" rx="2.5" ry="2.5" style="stroke:#181818;stroke-width:0.5;" width="326.0748" x="398.51" y="690.8779"/><ellipse cx="492.4426" cy="706.8779" fill="#ADD1B2" rx="11" ry="11" style="stroke:#181818;stroke-width:1;"/><path d="M495.9114,713.3779 L488.5989,713.3779 L488.5989,700.706 L495.9114,700.706 L495.9114,702.581 L490.6458,702.581 L490.6458,705.8467 L495.5989,705.8467 L495.5989,707.706 L490.6458,707.706 L490.6458,711.5029 L495.9114,711.5029 L495.9114,713.3779 Z " fill="#000000"/><text fill="#000000" font-family="sans-serif" font-size="14" lengthAdjust="spacing" textLength="129.7095" x="512.9426" y="712.3099">issue_labels_history</text><line style="stroke:#181818;stroke-width:0.5;" x1="399.51" x2="723.5848" y1="722.8779" y2="722.8779"/><g data-visibility-modifier="IE_MANDATORY"><ellipse cx="409.51" cy="737.9119" fill="#000000" rx="3" ry="3" style="stroke:#000000;stroke-width:1;"/></g><text fill="#000000" font-family="sans-serif" font-size="14" lengthAdjust="spacing" textLength="103.4876" x="418.51" y="741.8439">id : SERIAL &#171;PK&#187;</text><line style="stroke:#181818;stroke-width:1;" x1="399.51" x2="723.5848" y1="749.9458" y2="749.9458"/><text fill="#000000" font-family="sans-serif" font-size="14" lengthAdjust="spacing" textLength="143.9335" x="404.51" y="768.9118">repository : TEXT &#171;FK&#187;</text><text fill="#000000" font-family="sans-serif" font-size="14" lengthAdjust="spacing" textLength="125.6355" x="404.51" y="787.9797">issue : BIGINT &#171;FK&#187;</text><text fill="#000000" font-family="sans-serif" font-size="14" lengthAdjust="spacing" textLength="107.6316" x="404.51" y="807.0476">is_pr : BOOLEAN</text><text fill="#000000" font-family="sans-serif" font-size="14" lengthAdjust="spacing" textLength="74.1717" x="404.51" y="826.1155">label : TEXT</text><text fill="#000000" font-family="sans-serif" font-size="14" lengthAdjust="spacing" textLength="160.5934" x="404.51" y="845.1834">timestamp : TIMESTAMP</text><text fill="#000000" font-family="sans-serif" font-size="14" lengthAdjust="spacing" textLength="216.6211" x="404.51" y="864.2514">action : TEXT (ADDED|REMOVED)</text><line style="stroke:#181818;stroke-width:1;" x1="399.51" x2="723.5848" y1="872.3533" y2="872.3533"/><text fill="#000000" font-family="sans-serif" font-size="14" lengthAdjust="spacing" textLength="314.0748" x="404.51" y="891.3193">(repository, issue, timestamp, label) : &#171;UNIQUE&#187;</text></g><!--class file_activity--><g class="entity" data-qualified-name="file_activity" data-source-line="72" id="ent0008"><rect fill="#F1F1F1" height="208.5433" rx="2.5" ry="2.5" style="stroke:#181818;stroke-width:0.5;" width="350.8127" x="386.14" y="422.3279"/><ellipse cx="521.1415" cy="438.3279" fill="#ADD1B2" rx="11" ry="11" style="stroke:#181818;stroke-width:1;"/><path d="M524.6103,444.8279 L517.2978,444.8279 L517.2978,432.156 L524.6103,432.156 L524.6103,434.031 L519.3446,434.031 L519.3446,437.2967 L524.2978,437.2967 L524.2978,439.156 L519.3446,439.156 L519.3446,442.9529 L524.6103,442.9529 L524.6103,444.8279 Z " fill="#000000"/><text fill="#000000" font-family="sans-serif" font-size="14" lengthAdjust="spacing" textLength="72.3097" x="541.6415" y="443.7599">file_activity</text><line style="stroke:#181818;stroke-width:0.5;" x1="387.14" x2="735.9527" y1="454.3279" y2="454.3279"/><g data-visibility-modifier="IE_MANDATORY"><ellipse cx="397.14" cy="469.3619" fill="#000000" rx="3" ry="3" style="stroke:#000000;stroke-width:1;"/></g><text fill="#000000" font-family="sans-serif" font-size="14" lengthAdjust="spacing" textLength="103.4876" x="406.14" y="473.2939">id : SERIAL &#171;PK&#187;</text><line style="stroke:#181818;stroke-width:1;" x1="387.14" x2="735.9527" y1="481.3958" y2="481.3958"/><text fill="#000000" font-family="sans-serif" font-size="14" lengthAdjust="spacing" textLength="143.9335" x="392.14" y="500.3618">repository : TEXT &#171;FK&#187;</text><text fill="#000000" font-family="sans-serif" font-size="14" lengthAdjust="spacing" textLength="125.6355" x="392.14" y="519.4297">issue : BIGINT &#171;FK&#187;</text><text fill="#000000" font-family="sans-serif" font-size="14" lengthAdjust="spacing" textLength="98.9096" x="392.14" y="538.4976">file_path : TEXT</text><text fill="#000000" font-family="sans-serif" font-size="14" lengthAdjust="spacing" textLength="151.5354" x="392.14" y="557.5655">contributor_id : BIGINT</text><text fill="#000000" font-family="sans-serif" font-size="14" lengthAdjust="spacing" textLength="123.6615" x="392.14" y="576.6334">activity_type : TEXT</text><text fill="#000000" font-family="sans-serif" font-size="14" lengthAdjust="spacing" textLength="160.5934" x="392.14" y="595.7014">timestamp : TIMESTAMP</text><line style="stroke:#181818;stroke-width:1;" x1="387.14" x2="735.9527" y1="603.8033" y2="603.8033"/><text fill="#000000" font-family="sans-serif" font-size="14" lengthAdjust="spacing" textLength="338.8127" x="392.14" y="622.7693">(repository, issue, timestamp, file_path) : &#171;UNIQUE&#187;</text></g><!--link teams to contributors--><!--link contributors to file_activity--><!--link contributors to file_activity--><g class="link" data-entity-1="ent0003" data-entity-2="ent0008" data-link-type="crowfoot" data-source-line="103" id="lnk22"><path codeLine="103" d="M555.7,370.7779 C555.7,388.7179 555.7,383.4079 555.7,403.9279" fill="none" id="contributors-file_activity-1" style="stroke:#181818;stroke-width:1;"/><line style="stroke:#181818;stroke-width:1;" x1="551.7" x2="559.7" y1="366.7779" y2="366.7779"/><line style="stroke:#181818;stroke-width:1;" x1="551.7" x2="559.7" y1="369.7779" y2="369.7779"/><line style="stroke:#181818;stroke-width:1;" x1="555.7" x2="555.7" y1="370.7779" y2="362.7779"/><line style="stroke:#181818;stroke-width:1;" x1="555.7" x2="561.7" y1="413.9279" y2="421.9279"/><line style="stroke:#181818;stroke-width:1;" x1="555.7" x2="549.7" y1="413.9279" y2="421.9279"/><line style="stroke:#181818;stroke-width:1;" x1="555.7" x2="555.7" y1="413.9279" y2="421.9279"/><ellipse cx="555.7" cy="407.9279" fill="none" rx="4" ry="4" style="stroke:#181818;stroke-width:1;"/></g><!--link file_activity to issue_labels_history--><!--link contributors_teams to issues--><!--link teams to contributors_teams--><g class="link" data-entity-1="ent0002" data-entity-2="ent0004" data-link-type="crowfoot" data-source-line="92" id="lnk15"><path codeLine="92" d="M310.16,205.5479 C310.16,230.0579 310.16,231.0279 310.16,252.3879" fill="none" id="teams-contributors_teams" style="stroke:#181818;stroke-width:1;"/><line style="stroke:#181818;stroke-width:1;" x1="306.16" x2="314.16" y1="201.5479" y2="201.5479"/><line style="stroke:#181818;stroke-width:1;" x1="306.16" x2="314.16" y1="204.5479" y2="204.5479"/><line style="stroke:#181818;stroke-width:1;" x1="310.16" x2="310.16" y1="205.5479" y2="197.5479"/><line style="stroke:#181818;stroke-width:1;" x1="310.16" x2="316.16" y1="262.3879" y2="270.3879"/><line style="stroke:#181818;stroke-width:1;" x1="310.16" x2="304.16" y1="262.3879" y2="270.3879"/><line style="stroke:#181818;stroke-width:1;" x1="310.16" x2="310.16" y1="262.3879" y2="270.3879"/><ellipse cx="310.16" cy="256.3879" fill="none" rx="4" ry="4" style="stroke:#181818;stroke-width:1;"/></g><!--link contributors to issues--><g class="link" data-entity-1="ent0003" data-entity-2="ent0005" data-link-type="crowfoot" data-source-line="93" id="lnk16"><path codeLine="93" d="M426.74,355.4179 C351.15,355.4179 263.82,355.4179 263.82,355.4179 C263.82,355.4179 263.82,368.4479 263.82,404.0879" fill="none" id="contributors-issues" style="stroke:#181818;stroke-width:1;"/><line style="stroke:#181818;stroke-width:1;" x1="430.74" x2="430.74" y1="351.4179" y2="359.4179"/><line style="stroke:#181818;stroke-width:1;" x1="427.74" x2="427.74" y1="351.4179" y2="359.4179"/><line style="stroke:#181818;stroke-width:1;" x1="426.74" x2="434.74" y1="355.4179" y2="355.4179"/><line style="stroke:#181818;stroke-width:1;" x1="263.82" x2="269.82" y1="414.0879" y2="422.0879"/><line style="stroke:#181818;stroke-width:1;" x1="263.82" x2="257.82" y1="414.0879" y2="422.0879"/><line style="stroke:#181818;stroke-width:1;" x1="263.82" x2="263.82" y1="414.0879" y2="422.0879"/><ellipse cx="263.82" cy="408.0879" fill="none" rx="4" ry="4" style="stroke:#181818;stroke-width:1;"/></g><!--link issues to issue_event_history--><g class="link" data-entity-1="ent0005" data-entity-2="ent0006" data-link-type="crowfoot" data-source-line="96" id="lnk17"><path codeLine="96" d="M186.76,639.1979 C186.76,661.8779 186.76,659.7479 186.76,682.0379" fill="none" id="issues-issue_event_history" style="stroke:#181818;stroke-width:1;"/><line style="stroke:#181818;stroke-width:1;" x1="182.76" x2="190.76" y1="635.1979" y2="635.1979"/><line style="stroke:#181818;stroke-width:1;" x1="182.76" x2="190.76" y1="638.1979" y2="638.1979"/><line style="stroke:#181818;stroke-width:1;" x1="186.76" x2="186.76" y1="639.1979" y2="631.1979"/><line style="stroke:#181818;stroke-width:1;" x1="186.76" x2="192.76" y1="692.0379" y2="700.0379"/><line style="stroke:#181818;stroke-width:1;" x1="186.76" x2="180.76" y1="692.0379" y2="700.0379"/><line style="stroke:#181818;stroke-width:1;" x1="186.76" x2="186.76" y1="692.0379" y2="700.0379"/><ellipse cx="186.76" cy="686.0379" fill="none" rx="4" ry="4" style="stroke:#181818;stroke-width:1;"/></g><!--link issues to issue_labels_history--><g class="link" data-entity-1="ent0005" data-entity-2="ent0007" data-link-type="crowfoot" data-source-line="97" id="lnk18"><path codeLine="97" d="M256.34,639.1179 C256.34,673.6479 256.34,695.4179 256.34,695.4179 C256.34,695.4179 307.66,695.4179 380.22,695.4179" fill="none" id="issues-issue_labels_history" style="stroke:#181818;stroke-width:1;"/><line style="stroke:#181818;stroke-width:1;" x1="252.34" x2="260.34" y1="635.1179" y2="635.1179"/><line style="stroke:#181818;stroke-width:1;" x1="252.34" x2="260.34" y1="638.1179" y2="638.1179"/><line style="stroke:#181818;stroke-width:1;" x1="256.34" x2="256.34" y1="639.1179" y2="631.1179"/><line style="stroke:#181818;stroke-width:1;" x1="390.22" x2="398.22" y1="695.4179" y2="689.4179"/><line style="stroke:#181818;stroke-width:1;" x1="390.22" x2="398.22" y1="695.4179" y2="701.4179"/><line style="stroke:#181818;stroke-width:1;" x1="390.22" x2="398.22" y1="695.4179" y2="695.4179"/><ellipse cx="384.22" cy="695.4179" fill="none" rx="4" ry="4" style="stroke:#181818;stroke-width:1;"/></g><!--link issues to file_activity--><g class="link" data-entity-1="ent0005" data-entity-2="ent0008" data-link-type="crowfoot" data-source-line="98" id="lnk19"><path codeLine="98" d="M334.34,526.4179 C353.26,526.4179 347.46,526.4179 367.77,526.4179" fill="none" id="issues-file_activity" style="stroke:#181818;stroke-width:1;"/><line style="stroke:#181818;stroke-width:1;" x1="330.34" x2="330.34" y1="530.4179" y2="522.4179"/><line style="stroke:#181818;stroke-width:1;" x1="333.34" x2="333.34" y1="530.4179" y2="522.4179"/><line style="stroke:#181818;stroke-width:1;" x1="334.34" x2="326.34" y1="526.4179" y2="526.4179"/><line style="stroke:#181818;stroke-width:1;" x1="377.77" x2="385.77" y1="526.4179" y2="520.4179"/><line style="stroke:#181818;stroke-width:1;" x1="377.77" x2="385.77" y1="526.4179" y2="532.4179"/><line style="stroke:#181818;stroke-width:1;" x1="377.77" x2="385.77" y1="526.4179" y2="526.4179"/><ellipse cx="371.77" cy="526.4179" fill="none" rx="4" ry="4" style="stroke:#181818;stroke-width:1;"/></g><!--link contributors_teams to contributors--><g class="link" data-entity-1="ent0004" data-entity-2="ent0003" data-link-type="crowfoot" data-source-line="102" id="lnk21"><path codeLine="102" d="M393.88,309.4179 C413.65,309.4179 407.88,309.4179 426.82,309.4179" fill="none" id="contributors_teams-contributors" style="stroke:#181818;stroke-width:1;"/><line style="stroke:#181818;stroke-width:1;" x1="383.88" x2="375.88" y1="309.4179" y2="315.4179"/><line style="stroke:#181818;stroke-width:1;" x1="383.88" x2="375.88" y1="309.4179" y2="303.4179"/><line style="stroke:#181818;stroke-width:1;" x1="383.88" x2="375.88" y1="309.4179" y2="309.4179"/><ellipse cx="389.88" cy="309.4179" fill="none" rx="4" ry="4" style="stroke:#181818;stroke-width:1;"/><line style="stroke:#181818;stroke-width:1;" x1="430.82" x2="430.82" y1="305.4179" y2="313.4179"/><line style="stroke:#181818;stroke-width:1;" x1="427.82" x2="427.82" y1="305.4179" y2="313.4179"/><line style="stroke:#181818;stroke-width:1;" x1="426.82" x2="434.82" y1="309.4179" y2="309.4179"/></g><!--link teams to teams--><g class="link" data-entity-1="ent0002" data-entity-2="ent0002" data-link-type="crowfoot" data-source-line="104" id="lnk23"><path codeLine="104" d="M391.55,56.7679 C391.55,46.0679 391.55,46.4179 391.55,46.4179 C391.55,46.4179 577.14,46.4179 577.14,46.4179 C577.14,46.4179 577.14,227.4179 577.14,227.4179 C577.14,227.4179 503.89,227.4179 503.89,227.4179 C503.89,227.4179 503.89,232.1379 503.89,215.4379" fill="none" id="teams-teams" style="stroke:#181818;stroke-width:1;"/><line style="stroke:#181818;stroke-width:1;" x1="395.55" x2="387.55" y1="60.7679" y2="60.7679"/><line style="stroke:#181818;stroke-width:1;" x1="395.55" x2="387.55" y1="57.7679" y2="57.7679"/><line style="stroke:#181818;stroke-width:1;" x1="391.55" x2="391.55" y1="56.7679" y2="64.7679"/><line style="stroke:#181818;stroke-width:1;" x1="503.89" x2="497.89" y1="205.4379" y2="197.4379"/><line style="stroke:#181818;stroke-width:1;" x1="503.89" x2="509.89" y1="205.4379" y2="197.4379"/><line style="stroke:#181818;stroke-width:1;" x1="503.89" x2="503.89" y1="205.4379" y2="197.4379"/><ellipse cx="503.89" cy="211.4379" fill="none" rx="4" ry="4" style="stroke:#181818;stroke-width:1;"/><text fill="#000000" font-family="sans-serif" font-size="13" lengthAdjust="spacing" textLength="71.8381" x="586.52" y="77.4649">subteam_of</text></g><?plantuml-src lLLBRjim4Dth55Dlye45TDL5u0PmOQKmciHfVYXG508jZIt6CYcGb5ifwH5oW28hBxieSe9qO_jUfJws9Sj2icYxaQZXctdp7YbIKUKZMEVWKZ8KP0mkKQG_cyPe61vr4SQeFExAx4Cg5CXL5A0qv8YoW2GfFcMOn80BZJMC7RYUFwZ5TFPBPySe8WW4Xs3n0pqVNSQbAYGpxgB40DwyBWG5OQCygAjrS40PTH2GAQgCz1b1Go4PomOG2Ua8RWs0_NGC1t1fVRg4Lklim-6X3fkcViYmdqpQVB2UFyhcDR6R1vTenqDdP3DkI_G7jcvBqsf8MlxLsq8nuxknQidXJ0dQ3nKNMMV5GDxWa2elxDiq8NpNVTyztUmp1p0ondLFnQyQGdjjI3LSuquJZZv0IhrVJAfqjyHfwXKtbJB4Z2yRvXm20owfhX9Lrc4_GzOffz8EH3BPwnrRxTDa5MfxobVE2KMoChPKH1NiKdICEZGEab3tnBguR9-SwVWOnH1jwP6DrTvTDztCUjpJY5RhwhJxyShAX9TqspX9Q3qgavor2ULuxaZQ-OLrtcqVRoZUvbMkhEBKAhvfKahvlFOQeSrrGZChzPnqd_JHbrkqboV-Z_YKytdnn56KioNFRhlJiJftvzP9xzhgxBtGd9Igtfm1zT5EU2RwCtMb5FaNTgG40L7Use2QFoQt86d4Ji_glx9TLlnLLtPq0TE4wuY53Z9z5GWU-tpnEnq7VCmT_POZ4QdPa-F1XCJOJrECxBmoF-iRnqNsnULVcLawqOpIgRe1B7bkRDsNgummsC23aPza9KZrD5t9EufYwencF_NY-KJVKBk1psPJcD_FfeBi5VNStPbfW_nsMxsIeW8qQoUXE-TnG5p8D53K5hhBsRpdpRJoKLIBAfjJW0awz5I2Arkwb7xCXnlIzGKlmiMKJqZ5WntekLBfQtt-m2A8-v72-JtJoQxFGq-_5NvJUelfhPbiXNu4DmWtHBBP4yJWun2P6m41NJYUB1v1whJ0MJnMZ3Dz72ZpXIxd4giQLqjMG6In0sWKxlw6OVm1?></g></svg>