<?plantuml 1.2026.2?><svg xmlns="http://www.w3.org/2000/svg" xmlns:xlink="http://www.w3.org/1999/xlink" contentStyleType="text/css" data-diagram-type="DESCRIPTION" height="1295px" preserveAspectRatio="none" style="width:2051px;height:1295px;background:#FFFFFF;" version="1.1" viewBox="0 0 2051 1295" width="2051px" zoomAndPan="magnify"><title>Detailn&#237; architektura syst&#233;mu (modul&#225;rn&#237; monolit)</title><defs/><g><g class="title" data-source-line="1"><text fill="#000000" font-family="Monospace" font-size="14" font-weight="bold" lengthAdjust="spacing" textLength="348.0843" x="844.8485" y="26.9659">Detailn&#237;&#160;architektura&#160;syst&#233;mu&#160;(modul&#225;rn&#237;&#160;monolit)</text></g><!--cluster backend--><g class="cluster" data-qualified-name="backend" data-source-line="48" id="ent0007"><path d="M510.95,148.6379 L619.1051,148.6379 A3.75,3.75 0 0 1 621.6051,151.1379 L628.6051,177.7058 L1432.95,177.7058 A2.5,2.5 0 0 1 1435.45,180.2058 L1435.45,1285.6279 A2.5,2.5 0 0 1 1432.95,1288.1279 L510.95,1288.1279 A2.5,2.5 0 0 1 508.45,1285.6279 L508.45,151.1379 A2.5,2.5 0 0 1 510.95,148.6379" fill="none" style="stroke:#000000;stroke-width:1.5;"/><line style="stroke:#000000;stroke-width:1.5;" x1="508.45" x2="628.6051" y1="177.7058" y2="177.7058"/><text fill="#000000" font-family="Monospace" font-size="14" font-weight="bold" lengthAdjust="spacing" textLength="103.1551" x="514.45" y="167.6039">Backend&#160;(Rust)</text></g><!--cluster config_layer--><g class="cluster" data-qualified-name="backend.config_layer" data-source-line="50" id="ent0008"><path d="M1073.95,206.6379 L1218.673,206.6379 A3.75,3.75 0 0 1 1221.173,209.1379 L1228.173,235.7058 L1400.95,235.7058 A2.5,2.5 0 0 1 1403.45,238.2058 L1403.45,487.7479 A2.5,2.5 0 0 1 1400.95,490.2479 L1073.95,490.2479 A2.5,2.5 0 0 1 1071.45,487.7479 L1071.45,209.1379 A2.5,2.5 0 0 1 1073.95,206.6379" fill="none" style="stroke:#000000;stroke-width:1.5;"/><line style="stroke:#000000;stroke-width:1.5;" x1="1071.45" x2="1228.173" y1="235.7058" y2="235.7058"/><text fill="#000000" font-family="Monospace" font-size="14" font-weight="bold" lengthAdjust="spacing" textLength="139.723" x="1077.45" y="225.6039">Vstup&#160;a&#160;Konfigurace</text></g><!--cluster api_layer--><g class="cluster" data-qualified-name="backend.api_layer" data-source-line="60" id="ent0015"><path d="M542.95,354.1179 L700.3185,354.1179 A3.75,3.75 0 0 1 702.8185,356.6179 L709.8185,383.1858 L976.95,383.1858 A2.5,2.5 0 0 1 979.45,385.6858 L979.45,806.2179 A2.5,2.5 0 0 1 976.95,808.7179 L542.95,808.7179 A2.5,2.5 0 0 1 540.45,806.2179 L540.45,356.6179 A2.5,2.5 0 0 1 542.95,354.1179" fill="none" style="stroke:#000000;stroke-width:1.5;"/><line style="stroke:#000000;stroke-width:1.5;" x1="540.45" x2="709.8185" y1="383.1858" y2="383.1858"/><text fill="#000000" font-family="Monospace" font-size="14" font-weight="bold" lengthAdjust="spacing" textLength="152.3685" x="546.45" y="373.0839">API&#160;vrstva&#160;(`src/api/*`)</text></g><!--cluster agg_layer--><g class="cluster" data-qualified-name="backend.agg_layer" data-source-line="77" id="ent0027"><path d="M1021.95,530.2479 L1307.4075,530.2479 A3.75,3.75 0 0 1 1309.9075,532.7479 L1316.9075,559.3158 L1400.95,559.3158 A2.5,2.5 0 0 1 1403.45,561.8158 L1403.45,982.3579 A2.5,2.5 0 0 1 1400.95,984.8579 L1021.95,984.8579 A2.5,2.5 0 0 1 1019.45,982.3579 L1019.45,532.7479 A2.5,2.5 0 0 1 1021.95,530.2479" fill="none" style="stroke:#000000;stroke-width:1.5;"/><line style="stroke:#000000;stroke-width:1.5;" x1="1019.45" x2="1316.9075" y1="559.3158" y2="559.3158"/><text fill="#000000" font-family="Monospace" font-size="14" font-weight="bold" lengthAdjust="spacing" textLength="280.4575" x="1025.45" y="549.2139">Agrega&#269;n&#237;&#160;/&#160;integra&#269;n&#237;&#160;vrstva&#160;(`src/git/*`)</text></g><!--cluster db_layer--><g class="cluster" data-qualified-name="backend.db_layer" data-source-line="88" id="ent0035"><path d="M601.95,848.7179 L780.5774,848.7179 A3.75,3.75 0 0 1 783.0774,851.2179 L790.0774,877.7858 L976.95,877.7858 A2.5,2.5 0 0 1 979.45,880.2858 L979.45,1253.6279 A2.5,2.5 0 0 1 976.95,1256.1279 L601.95,1256.1279 A2.5,2.5 0 0 1 599.45,1253.6279 L599.45,851.2179 A2.5,2.5 0 0 1 601.95,848.7179" fill="none" style="stroke:#000000;stroke-width:1.5;"/><line style="stroke:#000000;stroke-width:1.5;" x1="599.45" x2="790.0774" y1="877.7858" y2="877.7858"/><text fill="#000000" font-family="Monospace" font-size="14" font-weight="bold" lengthAdjust="spacing" textLength="173.6274" x="605.45" y="867.6839">&#218;lo&#382;n&#225;&#160;vrstva&#160;(`src/db/*`)</text></g><!--entity config--><g class="entity" data-qualified-name="backend.config_layer.config" data-source-line="51" id="ent0009"><rect fill="#FFFFFF" height="62.1358" rx="2.5" ry="2.5" style="stroke:#6C757D;stroke-width:0.5;" width="113.4037" x="1119.74" y="256.6379"/><text fill="#000000" font-family="Monospace" font-size="14" lengthAdjust="spacing" textLength="43.0078" x="1131.74" y="283.6039">Config</text><text fill="#000000" font-family="Monospace" font-size="14" lengthAdjust="spacing" textLength="89.4037" x="1131.74" y="302.6718">`src/config.rs`</text></g><!--entity main--><g class="entity" data-qualified-name="backend.config_layer.main" data-source-line="52" id="ent0010"><rect fill="#FFFFFF" height="62.1358" rx="2.5" ry="2.5" style="stroke:#6C757D;stroke-width:0.5;" width="105.7317" x="1273.58" y="256.6379"/><text fill="#000000" font-family="Monospace" font-size="14" lengthAdjust="spacing" textLength="72.4497" x="1285.58" y="283.6039">Entry&#160;point</text><text fill="#000000" font-family="Monospace" font-size="14" lengthAdjust="spacing" textLength="81.7317" x="1285.58" y="302.6718">`src/main.rs`</text></g><!--entity commands--><g class="entity" data-qualified-name="backend.config_layer.commands" data-source-line="53" id="ent0011"><rect fill="#FFFFFF" height="62.1358" rx="2.5" ry="2.5" style="stroke:#6C757D;stroke-width:0.5;" width="155.9075" x="1223.49" y="404.1179"/><text fill="#000000" font-family="Monospace" font-size="14" lengthAdjust="spacing" textLength="131.9075" x="1235.49" y="431.0839">Commands&#160;/&#160;re&#382;imy</text><text fill="#000000" font-family="Monospace" font-size="14" lengthAdjust="spacing" textLength="121.7156" x="1235.49" y="450.1518">`src/commands.rs`</text></g><!--entity api_router--><g class="entity" data-qualified-name="backend.api_layer.api_router" data-source-line="61" id="ent0016"><rect fill="#FFFFFF" height="62.1358" rx="2.5" ry="2.5" style="stroke:#6C757D;stroke-width:0.5;" width="127.9776" x="611.46" y="404.1179"/><text fill="#000000" font-family="Monospace" font-size="14" lengthAdjust="spacing" textLength="44.5618" x="623.46" y="431.0839">Router</text><text fill="#000000" font-family="Monospace" font-size="14" lengthAdjust="spacing" textLength="103.9776" x="623.46" y="450.1518">`src/api/mod.rs`</text></g><!--entity api_docs--><g class="entity" data-qualified-name="backend.api_layer.api_docs" data-source-line="62" id="ent0017"><rect fill="#FFFFFF" height="62.1358" rx="2.5" ry="2.5" style="stroke:#6C757D;stroke-width:0.5;" width="128.3136" x="779.29" y="404.1179"/><text fill="#000000" font-family="Monospace" font-size="14" lengthAdjust="spacing" textLength="95.5776" x="791.29" y="431.0839">OpenAPI/Docs</text><text fill="#000000" font-family="Monospace" font-size="14" lengthAdjust="spacing" textLength="104.3136" x="791.29" y="450.1518">`src/api/docs.rs`</text></g><!--entity api_issues--><g class="entity" data-qualified-name="backend.api_layer.api_issues" data-source-line="64" id="ent0018"><rect fill="#FFFFFF" height="62.1358" rx="2.5" ry="2.5" style="stroke:#6C757D;stroke-width:0.5;" width="138.0856" x="606.4" y="580.2479"/><text fill="#000000" font-family="Monospace" font-size="14" lengthAdjust="spacing" textLength="111.7476" x="618.4" y="607.2139">Issues&#160;endpointy</text><text fill="#000000" font-family="Monospace" font-size="14" lengthAdjust="spacing" textLength="114.0856" x="618.4" y="626.2818">`src/api/issues.rs`</text></g><!--entity api_review--><g class="entity" data-qualified-name="backend.api_layer.api_review" data-source-line="65" id="ent0019"><rect fill="#FFFFFF" height="62.1358" rx="2.5" ry="2.5" style="stroke:#6C757D;stroke-width:0.5;" width="162.9494" x="784.97" y="580.2479"/><text fill="#000000" font-family="Monospace" font-size="14" lengthAdjust="spacing" textLength="138.9494" x="796.97" y="607.2139">PR/Review&#160;endpointy</text><text fill="#000000" font-family="Monospace" font-size="14" lengthAdjust="spacing" textLength="117.1096" x="796.97" y="626.2818">`src/api/review.rs`</text></g><!--entity app_state--><g class="entity" data-qualified-name="backend.api_layer.app_state" data-source-line="66" id="ent0020"><rect fill="#FFFFFF" height="62.1358" rx="2.5" ry="2.5" style="stroke:#6C757D;stroke-width:0.5;" width="161.6615" x="646.61" y="722.5879"/><text fill="#000000" font-family="Monospace" font-size="14" lengthAdjust="spacing" textLength="59.7098" x="658.61" y="749.5539">AppState</text><text fill="#000000" font-family="Monospace" font-size="14" lengthAdjust="spacing" textLength="137.6615" x="658.61" y="768.6218">`src/api/app_state.rs`</text></g><!--entity state_monitor--><g class="entity" data-qualified-name="backend.agg_layer.state_monitor" data-source-line="78" id="ent0028"><rect fill="#FFFFFF" height="62.1358" rx="2.5" ry="2.5" style="stroke:#6C757D;stroke-width:0.5;" width="237.0792" x="1067.91" y="580.2479"/><text fill="#000000" font-family="Monospace" font-size="14" lengthAdjust="spacing" textLength="86.2817" x="1079.91" y="607.2139">StateMonitor</text><text fill="#000000" font-family="Monospace" font-size="14" lengthAdjust="spacing" textLength="213.0792" x="1079.91" y="626.2818">`src/monitoring/state_tracker.rs`</text></g><!--entity sync_handler--><g class="entity" data-qualified-name="backend.agg_layer.sync_handler" data-source-line="79" id="ent0029"><rect fill="#FFFFFF" height="62.1358" rx="2.5" ry="2.5" style="stroke:#6C757D;stroke-width:0.5;" width="125.1776" x="1241.86" y="722.5879"/><text fill="#000000" font-family="Monospace" font-size="14" lengthAdjust="spacing" textLength="82.9777" x="1253.86" y="749.5539">SyncHandler</text><text fill="#000000" font-family="Monospace" font-size="14" lengthAdjust="spacing" textLength="101.1776" x="1253.86" y="768.6218">`src/git/mod.rs`</text></g><!--entity github_client--><g class="entity" data-qualified-name="backend.agg_layer.github_client" data-source-line="80" id="ent0030"><rect fill="#FFFFFF" height="62.1358" rx="2.5" ry="2.5" style="stroke:#6C757D;stroke-width:0.5;" width="138.1976" x="1051.35" y="898.7179"/><text fill="#000000" font-family="Monospace" font-size="14" lengthAdjust="spacing" textLength="107.6036" x="1063.35" y="925.6839">GitHubApi&#160;klient</text><text fill="#000000" font-family="Monospace" font-size="14" lengthAdjust="spacing" textLength="114.1976" x="1063.35" y="944.7518">`src/git/github.rs`</text></g><!--entity repo_adapter--><g class="entity" data-qualified-name="backend.agg_layer.repo_adapter" data-source-line="81" id="ent0031"><rect fill="#FFFFFF" height="62.1358" rx="2.5" ry="2.5" style="stroke:#6C757D;stroke-width:0.5;" width="150.3075" x="1229.29" y="898.7179"/><text fill="#000000" font-family="Monospace" font-size="14" lengthAdjust="spacing" textLength="126.3075" x="1241.29" y="925.6839">Repo&#160;adapt&#233;r&#160;(git2)</text><text fill="#000000" font-family="Monospace" font-size="14" lengthAdjust="spacing" textLength="88.2837" x="1241.29" y="944.7518">`src/git/git.rs`</text></g><!--entity db_facade--><g class="entity" data-qualified-name="backend.db_layer.db_facade" data-source-line="89" id="ent0036"><rect fill="#FFFFFF" height="62.1358" rx="2.5" ry="2.5" style="stroke:#6C757D;stroke-width:0.5;" width="133.4376" x="712.73" y="898.7179"/><text fill="#000000" font-family="Monospace" font-size="14" lengthAdjust="spacing" textLength="109.4376" x="724.73" y="925.6839">Database&#160;facade</text><text fill="#000000" font-family="Monospace" font-size="14" lengthAdjust="spacing" textLength="101.1216" x="724.73" y="944.7518">`src/db/mod.rs`</text></g><!--entity db_queries--><g class="entity" data-qualified-name="backend.db_layer.db_queries" data-source-line="90" id="ent0037"><rect fill="#FFFFFF" height="62.1358" rx="2.5" ry="2.5" style="stroke:#6C757D;stroke-width:0.5;" width="144.1056" x="623.39" y="1029.8579"/><text fill="#000000" font-family="Monospace" font-size="14" lengthAdjust="spacing" textLength="97.5796" x="635.39" y="1056.8239">Queries&#160;(&#268;ten&#237;)</text><text fill="#000000" font-family="Monospace" font-size="14" lengthAdjust="spacing" textLength="120.1056" x="635.39" y="1075.8918">`src/db/queries.rs`</text></g><!--entity db_inserts--><g class="entity" data-qualified-name="backend.db_layer.db_inserts" data-source-line="91" id="ent0038"><rect fill="#FFFFFF" height="62.1358" rx="2.5" ry="2.5" style="stroke:#6C757D;stroke-width:0.5;" width="139.3596" x="807.77" y="1029.8579"/><text fill="#000000" font-family="Monospace" font-size="14" lengthAdjust="spacing" textLength="92.3717" x="819.77" y="1056.8239">Inserts&#160;(Z&#225;pis)</text><text fill="#000000" font-family="Monospace" font-size="14" lengthAdjust="spacing" textLength="115.3596" x="819.77" y="1075.8918">`src/db/inserts.rs`</text></g><!--entity db_models--><g class="entity" data-qualified-name="backend.db_layer.db_models" data-source-line="92" id="ent0039"><rect fill="#FFFFFF" height="62.1358" rx="2.5" ry="2.5" style="stroke:#6C757D;stroke-width:0.5;" width="133.3116" x="719.79" y="1169.9879"/><text fill="#000000" font-family="Monospace" font-size="14" lengthAdjust="spacing" textLength="48.4258" x="731.79" y="1196.9539">Modely</text><text fill="#000000" font-family="Monospace" font-size="14" lengthAdjust="spacing" textLength="109.3116" x="731.79" y="1216.0218">`src/db/model/*`</text></g><!--entity user--><g class="entity" data-qualified-name="user" data-source-line="37" id="ent0002"><ellipse cx="127.4469" cy="58.0679" fill="#F1F1F1" rx="8" ry="8" style="stroke:#181818;stroke-width:0.5;"/><path d="M127.4469,66.0679 L127.4469,93.0679 M114.4469,74.0679 L140.4469,74.0679 M127.4469,93.0679 L114.4469,108.0679 M127.4469,93.0679 L140.4469,108.0679" fill="none" style="stroke:#181818;stroke-width:0.5;"/><text fill="#000000" font-family="Monospace" font-size="14" lengthAdjust="spacing" textLength="51.9538" x="101.47" y="126.5339">U&#382;ivatel</text></g><!--entity fe--><g class="entity" data-qualified-name="fe" data-source-line="38" id="ent0003"><polygon fill="#F1F1F1" points="16,261.6379,26,251.6379,238.8913,251.6379,238.8913,313.7738,228.8913,323.7738,16,323.7738,16,261.6379" style="stroke:#181818;stroke-width:0.5;"/><line style="stroke:#181818;stroke-width:0.5;" x1="228.8913" x2="238.8913" y1="261.6379" y2="251.6379"/><line style="stroke:#181818;stroke-width:0.5;" x1="16" x2="228.8913" y1="261.6379" y2="261.6379"/><line style="stroke:#181818;stroke-width:0.5;" x1="228.8913" x2="228.8913" y1="261.6379" y2="323.7738"/><text fill="#000000" font-family="Monospace" font-size="14" lengthAdjust="spacing" textLength="100.3236" x="33" y="288.6039">Frontend&#160;klient</text><text fill="#000000" font-family="Monospace" font-size="14" lengthAdjust="spacing" textLength="178.8913" x="33" y="307.6718">(Web&#160;SPA&#160;/&#160;Vue&#160;dashboard)</text></g><g class="entity" data-qualified-name="GMN4" data-source-line="41" id="ent0005"><path d="M278.71,245.2879 L278.71,284.1279 L239.11,288.1279 L278.71,292.1279 L278.71,330.112 A0,0 0 0 0 278.71,330.112 L492.1842,330.112 A0,0 0 0 0 492.1842,330.112 L492.1842,255.2879 L482.1842,245.2879 L278.71,245.2879 A0,0 0 0 0 278.71,245.2879" fill="#FEFFDD" style="stroke:#181818;stroke-width:0.5;"/><path d="M482.1842,245.2879 L482.1842,255.2879 L492.1842,255.2879 L482.1842,245.2879" fill="#FEFFDD" style="stroke:#181818;stroke-width:0.5;"/><text fill="#000000" font-family="Monospace" font-size="13" lengthAdjust="spacing" textLength="76.7391" x="286.71" y="266.1849">Tenk&#253;&#160;klient:</text><text fill="#000000" font-family="Monospace" font-size="13" lengthAdjust="spacing" textLength="89.7001" x="286.71" y="283.8909">-&#160;vol&#225;&#160;REST&#160;API</text><text fill="#000000" font-family="Monospace" font-size="13" lengthAdjust="spacing" textLength="145.2101" x="286.71" y="301.597">-&#160;vykresluje&#160;data&#160;a&#160;grafy</text><text fill="#000000" font-family="Monospace" font-size="13" lengthAdjust="spacing" textLength="188.4742" x="286.71" y="319.303">-&#160;business&#160;logika&#160;je&#160;v&#160;backendu</text></g><!--entity gh--><g class="entity" data-qualified-name="gh" data-source-line="102" id="ent0044"><path d="M1460.8556,1044.3321 C1463.3356,1038.9849 1467.9013,1037.0975 1472.1395,1042.4839 C1474.2012,1034.2223 1481.2099,1033.4788 1486.8134,1038.6007 C1489.3798,1032.2075 1493.7586,1032.7558 1497.9058,1036.9435 C1501.7606,1030.6725 1506.4407,1028.6884 1511.7312,1035.4165 C1514.3182,1030.1581 1518.6223,1029.6497 1522.5513,1033.8875 C1526.8869,1027.3397 1533.3253,1029.1696 1535.9118,1035.6774 C1540.4426,1030.4326 1545.7381,1031.209 1548.8242,1037.3201 C1553.294,1032.6229 1559.651,1033.8543 1561.7951,1040.0815 C1566.8234,1035.3365 1570.9209,1034.6268 1574.2708,1041.8335 C1578.1223,1036.4549 1583.2263,1036.8556 1585.4076,1043.3944 C1595.9699,1047.6959 1595.4017,1055.1429 1587.7789,1061.7887 C1595.8474,1066.7689 1597.1885,1075.3127 1587.208,1079.7183 C1584.5934,1086.2532 1578.8863,1088.6604 1573.6771,1082.4791 C1570.1522,1089.3249 1565.0758,1089.4559 1561.051,1082.9518 C1558.2974,1088.4797 1552.7663,1088.2283 1549.5825,1083.4296 C1546.3309,1090.2938 1540.1344,1091.7405 1535.6848,1084.62 C1532.2936,1090.0274 1528.6396,1090.3957 1523.9845,1086.1522 C1519.7472,1092.9876 1513.6709,1091.3698 1510.3995,1085.1472 C1506.5361,1090.6625 1502.1329,1089.5803 1499.3969,1084.0266 C1495.6831,1089.8801 1489.3548,1090.7487 1485.7991,1083.8579 C1480.9234,1088.2944 1476.4268,1087.3303 1473.6244,1081.4186 C1469.3461,1087.1184 1465.2088,1088.0205 1461.2303,1081.1237 C1450.178,1077.851 1448.9416,1071.3665 1455.3518,1062.5632 C1449.3314,1055.1624 1449.3864,1046.453 1460.8556,1044.3321" fill="#E7F5FF" style="stroke:#1C7ED6;stroke-width:0.5;"/><text fill="#000000" font-family="Monospace" font-size="14" lengthAdjust="spacing" textLength="107.8976" x="1468.5" y="1066.3539">GitHub&#160;REST&#160;API</text></g><!--entity local_repo--><g class="entity" data-qualified-name="local_repo" data-source-line="103" id="ent0045"><path d="M1635.77,1020.8579 L1676.77,1020.8579 A3.75,3.75 0 0 1 1679.27,1023.3579 L1686.27,1041.8579 L1829.1154,1041.8579 A2.5,2.5 0 0 1 1831.6154,1044.3579 L1831.6154,1098.4938 A2.5,2.5 0 0 1 1829.1154,1100.9938 L1635.77,1100.9938 A2.5,2.5 0 0 1 1633.27,1098.4938 L1633.27,1023.3579 A2.5,2.5 0 0 1 1635.77,1020.8579" fill="#F1F3F5" style="stroke:#868E96;stroke-width:0.5;"/><line style="stroke:#868E96;stroke-width:0.5;" x1="1633.27" x2="1686.27" y1="1041.8579" y2="1041.8579"/><text fill="#000000" font-family="Monospace" font-size="14" lengthAdjust="spacing" textLength="164.3454" x="1645.27" y="1065.8239">Lok&#225;ln&#237;&#160;mirror&#160;repozit&#225;&#345;e</text><text fill="#000000" font-family="Monospace" font-size="14" lengthAdjust="spacing" textLength="137.1995" x="1645.27" y="1084.8918">`./test_repos/&lt;repo&gt;`</text></g><!--entity sql_db--><g class="entity" data-qualified-name="sql_db" data-source-line="105" id="ent0046"><path d="M1451.48,1175.4879 C1451.48,1165.4879 1522.4408,1165.4879 1522.4408,1165.4879 C1522.4408,1165.4879 1593.4015,1165.4879 1593.4015,1175.4879 L1593.4015,1226.6238 C1593.4015,1236.6238 1522.4408,1236.6238 1522.4408,1236.6238 C1522.4408,1236.6238 1451.48,1236.6238 1451.48,1226.6238 L1451.48,1175.4879" fill="#FFF3CD" style="stroke:#856404;stroke-width:0.5;"/><path d="M1451.48,1175.4879 C1451.48,1185.4879 1522.4408,1185.4879 1522.4408,1185.4879 C1522.4408,1185.4879 1593.4015,1185.4879 1593.4015,1175.4879" fill="none" style="stroke:#856404;stroke-width:0.5;"/><text fill="#000000" font-family="Monospace" font-size="14" lengthAdjust="spacing" textLength="91.5177" x="1463.48" y="1206.4539">SQL&#160;Datab&#225;ze</text><text fill="#000000" font-family="Monospace" font-size="14" lengthAdjust="spacing" textLength="117.9215" x="1463.48" y="1225.5218">(sch&#233;ma&#160;+&#160;indexy)</text></g><!--entity logs--><g class="entity" data-qualified-name="logs" data-source-line="106" id="ent0047"><rect fill="#F1F1F1" height="65.1358" rx="2.5" ry="2.5" style="stroke:#181818;stroke-width:0.5;" width="124.5656" x="1724.16" y="721.0879"/><polygon fill="#F1F1F1" points="1831.7256,726.0879,1831.7256,740.0879,1843.7256,740.0879,1843.7256,732.0879,1837.7256,726.0879,1831.7256,726.0879" style="stroke:#181818;stroke-width:0.5;"/><line style="stroke:#181818;stroke-width:0.5;" x1="1837.7256" x2="1837.7256" y1="726.0879" y2="732.0879"/><line style="stroke:#181818;stroke-width:0.5;" x1="1843.7256" x2="1837.7256" y1="732.0879" y2="732.0879"/><text fill="#000000" font-family="Monospace" font-size="14" lengthAdjust="spacing" textLength="90.5656" x="1736.16" y="751.0539">Aplika&#269;n&#237;&#160;logy</text><text fill="#000000" font-family="Monospace" font-size="14" lengthAdjust="spacing" textLength="40.0259" x="1736.16" y="770.1218">`*.log`</text></g><!--entity compose--><g class="entity" data-qualified-name="compose" data-source-line="109" id="ent0048"><polygon fill="#F1F1F1" points="1822.11,1184.5279,1832.11,1174.5279,2034.7813,1174.5279,2034.7813,1217.5958,2024.7813,1227.5958,1822.11,1227.5958,1822.11,1184.5279" style="stroke:#181818;stroke-width:0.5;"/><line style="stroke:#181818;stroke-width:0.5;" x1="2024.7813" x2="2034.7813" y1="1184.5279" y2="1174.5279"/><line style="stroke:#181818;stroke-width:0.5;" x1="1822.11" x2="2024.7813" y1="1184.5279" y2="1184.5279"/><line style="stroke:#181818;stroke-width:0.5;" x1="2024.7813" x2="2024.7813" y1="1184.5279" y2="1227.5958"/><text fill="#000000" font-family="Monospace" font-size="14" lengthAdjust="spacing" textLength="168.6713" x="1839.11" y="1211.4939">Docker&#160;Compose&#160;runtime</text></g><!--entity migrations--><g class="entity" data-qualified-name="migrations" data-source-line="110" id="ent0049"><path d="M1635.49,1160.9879 L1676.49,1160.9879 A3.75,3.75 0 0 1 1678.99,1163.4879 L1685.99,1181.9879 L1779.4016,1181.9879 A2.5,2.5 0 0 1 1781.9016,1184.4879 L1781.9016,1238.6238 A2.5,2.5 0 0 1 1779.4016,1241.1238 L1635.49,1241.1238 A2.5,2.5 0 0 1 1632.99,1238.6238 L1632.99,1163.4879 A2.5,2.5 0 0 1 1635.49,1160.9879" fill="#F1F3F5" style="stroke:#868E96;stroke-width:0.5;"/><line style="stroke:#868E96;stroke-width:0.5;" x1="1632.99" x2="1685.99" y1="1181.9879" y2="1181.9879"/><text fill="#000000" font-family="Monospace" font-size="14" lengthAdjust="spacing" textLength="53.1718" x="1644.99" y="1205.9539">Migrace</text><text fill="#000000" font-family="Monospace" font-size="14" lengthAdjust="spacing" textLength="114.9116" x="1644.99" y="1225.0218">`migrations/*.sql`</text></g><g class="entity" data-qualified-name="GMN55" data-source-line="124" id="ent0056"><path d="M1451.19,702.3879 L1451.19,750.1279 L1367.44,754.1279 L1451.19,758.1279 L1451.19,804.918 A0,0 0 0 0 1451.19,804.918 L1683.7092,804.918 A0,0 0 0 0 1683.7092,804.918 L1683.7092,712.3879 L1673.7092,702.3879 L1451.19,702.3879 A0,0 0 0 0 1451.19,702.3879" fill="#FEFFDD" style="stroke:#181818;stroke-width:0.5;"/><path d="M1673.7092,702.3879 L1673.7092,712.3879 L1683.7092,712.3879 L1673.7092,702.3879" fill="#FEFFDD" style="stroke:#181818;stroke-width:0.5;"/><text fill="#000000" font-family="Monospace" font-size="13" lengthAdjust="spacing" textLength="77.7661" x="1459.19" y="723.2849">Orchestrace:</text><text fill="#000000" font-family="Monospace" font-size="13" lengthAdjust="spacing" textLength="207.5192" x="1459.19" y="740.9909">1)&#160;users&#160;-&gt;&#160;upsert_team_members</text><text fill="#000000" font-family="Monospace" font-size="13" lengthAdjust="spacing" textLength="150.3192" x="1459.19" y="758.697">2)&#160;PR&#160;sync&#160;(+&#160;file_activity)</text><text fill="#000000" font-family="Monospace" font-size="13" lengthAdjust="spacing" textLength="82.6281" x="1459.19" y="776.403">3)&#160;issues&#160;sync</text><text fill="#000000" font-family="Monospace" font-size="13" lengthAdjust="spacing" textLength="163.2411" x="1459.19" y="794.109">4)&#160;backfill&#160;chyb&#283;j&#237;c&#237;&#160;historie</text></g><!--link config to main--><!--link main to commands--><g class="link" data-entity-1="ent0010" data-entity-2="ent0011" data-link-type="dependency" data-source-line="56" id="lnk13"><path d="M1326.45,318.9779 C1326.45,343.9279 1326.45,372.6979 1326.45,397.6979" fill="none" id="main-to-commands" style="stroke:#181818;stroke-width:1;"/><polygon fill="#181818" points="1326.45,403.6979,1330.45,394.6979,1326.45,398.6979,1322.45,394.6979,1326.45,403.6979" style="stroke:#181818;stroke-width:1;"/></g><!--link config to commands--><g class="link" data-entity-1="ent0009" data-entity-2="ent0011" data-link-type="dependency" data-source-line="57" id="lnk14"><path d="M1228.32,318.9779 C1228.32,343.9279 1228.32,372.6979 1228.32,397.6979" fill="none" id="config-to-commands" style="stroke:#181818;stroke-width:1;"/><polygon fill="#181818" points="1228.32,403.6979,1232.32,394.6979,1228.32,398.6979,1224.32,394.6979,1228.32,403.6979" style="stroke:#181818;stroke-width:1;"/></g><!--link api_router to api_issues--><g class="link" data-entity-1="ent0016" data-entity-2="ent0018" data-link-type="dependency" data-source-line="68" id="lnk21"><path d="M654.12,466.6779 C654.12,498.6379 654.12,541.8379 654.12,573.8079" fill="none" id="api_router-to-api_issues" style="stroke:#181818;stroke-width:1;"/><polygon fill="#181818" points="654.12,579.8079,658.12,570.8079,654.12,574.8079,650.12,570.8079,654.12,579.8079" style="stroke:#181818;stroke-width:1;"/></g><!--link api_router to api_review--><g class="link" data-entity-1="ent0016" data-entity-2="ent0019" data-link-type="dependency" data-source-line="69" id="lnk22"><path d="M739.76,435.1279 C755.38,435.1279 767.69,435.1279 767.69,435.1279 C767.69,435.1279 767.69,611.1279 767.69,611.1279 C767.69,611.1279 768.66,611.1279 778.89,611.1279" fill="none" id="api_router-to-api_review" style="stroke:#181818;stroke-width:1;"/><polygon fill="#181818" points="784.89,611.1279,775.89,607.1279,779.89,611.1279,775.89,615.1279,784.89,611.1279" style="stroke:#181818;stroke-width:1;"/></g><!--link api_router to api_docs--><g class="link" data-entity-1="ent0016" data-entity-2="ent0017" data-link-type="dependency" data-source-line="70" id="lnk23"><path d="M739.92,420.1279 C752.69,420.1279 760.09,420.1279 772.87,420.1279" fill="none" id="api_router-to-api_docs" style="stroke:#181818;stroke-width:1;"/><polygon fill="#181818" points="778.87,420.1279,769.87,416.1279,773.87,420.1279,769.87,424.1279,778.87,420.1279" style="stroke:#181818;stroke-width:1;"/></g><!--link api_router to app_state--><g class="link" data-entity-1="ent0016" data-entity-2="ent0020" data-link-type="dependency" data-source-line="71" id="lnk24"><path d="M739.77,451.1279 C749.35,451.1279 756.09,451.1279 756.09,451.1279 C756.09,451.1279 756.09,638.6479 756.09,716.1379" fill="none" id="api_router-to-app_state" style="stroke:#181818;stroke-width:1;"/><polygon fill="#181818" points="756.09,722.1379,760.09,713.1379,756.09,717.1379,752.09,713.1379,756.09,722.1379" style="stroke:#181818;stroke-width:1;"/><text fill="#000000" font-family="Monospace" font-size="13" lengthAdjust="spacing" textLength="71.1231" x="682.47" y="572.3649">sd&#237;len&#253;&#160;stav</text></g><!--link api_issues to app_state--><g class="link" data-entity-1="ent0018" data-entity-2="ent0020" data-link-type="dependency" data-source-line="73" id="lnk25"><path d="M695.55,642.5579 C695.55,666.2879 695.55,692.7779 695.55,716.4879" fill="none" id="api_issues-to-app_state" style="stroke:#181818;stroke-width:1;"/><polygon fill="#181818" points="695.55,722.4879,699.55,713.4879,695.55,717.4879,691.55,713.4879,695.55,722.4879" style="stroke:#181818;stroke-width:1;"/></g><!--link api_review to app_state--><g class="link" data-entity-1="ent0019" data-entity-2="ent0020" data-link-type="dependency" data-source-line="74" id="lnk26"><path d="M796.62,642.5579 C796.62,666.2879 796.62,692.7779 796.62,716.4879" fill="none" id="api_review-to-app_state" style="stroke:#181818;stroke-width:1;"/><polygon fill="#181818" points="796.62,722.4879,800.62,713.4879,796.62,717.4879,792.62,713.4879,796.62,722.4879" style="stroke:#181818;stroke-width:1;"/></g><!--link state_monitor to sync_handler--><g class="link" data-entity-1="ent0028" data-entity-2="ent0029" data-link-type="dependency" data-source-line="83" id="lnk32"><path d="M1273.42,642.5579 C1273.42,666.2879 1273.42,692.7779 1273.42,716.4879" fill="none" id="state_monitor-to-sync_handler" style="stroke:#181818;stroke-width:1;"/><polygon fill="#181818" points="1273.42,722.4879,1277.42,713.4879,1273.42,717.4879,1269.42,713.4879,1273.42,722.4879" style="stroke:#181818;stroke-width:1;"/><text fill="#000000" font-family="Monospace" font-size="13" lengthAdjust="spacing" textLength="63.076" x="1202.3675" y="699.4149">periodick&#253;</text><text fill="#000000" font-family="Monospace" font-size="13" lengthAdjust="spacing" textLength="74.9711" x="1196.42" y="717.1209">sync/backfill</text></g><!--link sync_handler to github_client--><g class="link" data-entity-1="ent0029" data-entity-2="ent0030" data-link-type="dependency" data-source-line="84" id="lnk33"><path d="M1241.5,764.1279 C1191.08,764.1279 1128.73,764.1279 1128.73,764.1279 C1128.73,764.1279 1128.73,844.1779 1128.73,892.2379" fill="none" id="sync_handler-to-github_client" style="stroke:#181818;stroke-width:1;"/><polygon fill="#181818" points="1128.73,898.2379,1132.73,889.2379,1128.73,893.2379,1124.73,889.2379,1128.73,898.2379" style="stroke:#181818;stroke-width:1;"/></g><!--link sync_handler to repo_adapter--><g class="link" data-entity-1="ent0029" data-entity-2="ent0031" data-link-type="dependency" data-source-line="85" id="lnk34"><path d="M1304.45,785.1379 C1304.45,817.1079 1304.45,860.3079 1304.45,892.2779" fill="none" id="sync_handler-to-repo_adapter" style="stroke:#181818;stroke-width:1;"/><polygon fill="#181818" points="1304.45,898.2779,1308.45,889.2779,1304.45,893.2779,1300.45,889.2779,1304.45,898.2779" style="stroke:#181818;stroke-width:1;"/></g><!--link db_facade to db_queries--><g class="link" data-entity-1="ent0036" data-entity-2="ent0037" data-link-type="dependency" data-source-line="94" id="lnk40"><path d="M740.11,961.1979 C740.11,981.9579 740.11,1003.0579 740.11,1023.7679" fill="none" id="db_facade-to-db_queries" style="stroke:#181818;stroke-width:1;"/><polygon fill="#181818" points="740.11,1029.7679,744.11,1020.7679,740.11,1024.7679,736.11,1020.7679,740.11,1029.7679" style="stroke:#181818;stroke-width:1;"/></g><!--link db_facade to db_inserts--><g class="link" data-entity-1="ent0036" data-entity-2="ent0038" data-link-type="dependency" data-source-line="95" id="lnk41"><path d="M826.97,961.1979 C826.97,981.9579 826.97,1003.0579 826.97,1023.7679" fill="none" id="db_facade-to-db_inserts" style="stroke:#181818;stroke-width:1;"/><polygon fill="#181818" points="826.97,1029.7679,830.97,1020.7679,826.97,1024.7679,822.97,1020.7679,826.97,1029.7679" style="stroke:#181818;stroke-width:1;"/></g><!--link db_queries to db_models--><g class="link" data-entity-1="ent0037" data-entity-2="ent0039" data-link-type="dependency" data-source-line="96" id="lnk42"><path d="M735.69,1092.3779 C735.69,1115.4479 735.69,1140.6579 735.69,1163.7179" fill="none" id="db_queries-to-db_models" style="stroke:#181818;stroke-width:1;"/><polygon fill="#181818" points="735.69,1169.7179,739.69,1160.7179,735.69,1164.7179,731.69,1160.7179,735.69,1169.7179" style="stroke:#181818;stroke-width:1;"/></g><!--link db_inserts to db_models--><g class="link" data-entity-1="ent0038" data-entity-2="ent0039" data-link-type="dependency" data-source-line="97" id="lnk43"><path d="M830.43,1092.3779 C830.43,1115.4479 830.43,1140.6579 830.43,1163.7179" fill="none" id="db_inserts-to-db_models" style="stroke:#181818;stroke-width:1;"/><polygon fill="#181818" points="830.43,1169.7179,834.43,1160.7179,830.43,1164.7179,826.43,1160.7179,830.43,1169.7179" style="stroke:#181818;stroke-width:1;"/></g><!--link user to fe--><g class="link" data-entity-1="ent0002" data-entity-2="ent0003" data-link-type="dependency" data-source-line="115" id="lnk50"><path d="M127.45,132.7979 C127.45,167.9679 127.45,211.7979 127.45,245.3579" fill="none" id="user-to-fe" style="stroke:#181818;stroke-width:1;"/><polygon fill="#181818" points="127.45,251.3579,131.45,242.3579,127.45,246.3579,123.45,242.3579,127.45,251.3579" style="stroke:#181818;stroke-width:1;"/><text fill="#000000" font-family="Monospace" font-size="13" lengthAdjust="spacing" textLength="83.8631" x="41.45" y="185.9749">interakce&#160;v&#160;UI</text></g><!--link fe to api_router--><g class="link" data-entity-1="ent0003" data-entity-2="ent0016" data-link-type="dependency" data-source-line="116" id="lnk51"><path d="M127.45,324.1479 C127.45,367.7979 127.45,435.1279 127.45,435.1279 C127.45,435.1279 460.11,435.1279 604.97,435.1279" fill="none" id="fe-to-api_router" style="stroke:#181818;stroke-width:1;"/><polygon fill="#181818" points="610.97,435.1279,601.97,431.1279,605.97,435.1279,601.97,439.1279,610.97,435.1279" style="stroke:#181818;stroke-width:1;"/><text fill="#000000" font-family="Monospace" font-size="13" lengthAdjust="spacing" textLength="115.5051" x="195.72" y="429.0249">HTTP(S)&#160;REST/JSON</text></g><!--link app_state to db_facade--><g class="link" data-entity-1="ent0020" data-entity-2="ent0036" data-link-type="dependency" data-source-line="119" id="lnk52"><path d="M760.5,785.1379 C760.5,817.1079 760.5,860.3079 760.5,892.2779" fill="none" id="app_state-to-db_facade" style="stroke:#181818;stroke-width:1;"/><polygon fill="#181818" points="760.5,898.2779,764.5,889.2779,760.5,893.2779,756.5,889.2779,760.5,898.2779" style="stroke:#181818;stroke-width:1;"/><text fill="#000000" font-family="Monospace" font-size="13" lengthAdjust="spacing" textLength="36.504" x="695.279" y="817.6049">vol&#225;n&#237;</text><text fill="#000000" font-family="Monospace" font-size="13" lengthAdjust="spacing" textLength="88.0621" x="669.5" y="835.3109">metod&#160;nad&#160;DB</text></g><!--link commands to sync_handler--><g class="link" data-entity-1="ent0011" data-entity-2="ent0029" data-link-type="dependency" data-source-line="120" id="lnk53"><path d="M1325.67,466.5879 C1325.67,527.6379 1325.67,655.6279 1325.67,716.4779" fill="none" id="commands-to-sync_handler" style="stroke:#181818;stroke-width:1;"/><polygon fill="#181818" points="1325.67,722.4779,1329.67,713.4779,1325.67,717.4779,1321.67,713.4779,1325.67,722.4779" style="stroke:#181818;stroke-width:1;"/><text fill="#000000" font-family="Monospace" font-size="13" lengthAdjust="spacing" textLength="51.8961" x="1339.1545" y="570.4349">spu&#353;t&#283;n&#237;</text><text fill="#000000" font-family="Monospace" font-size="13" lengthAdjust="spacing" textLength="72.8651" x="1328.67" y="588.1409">sync&#160;re&#382;imu</text></g><!--link sync_handler to db_facade--><g class="link" data-entity-1="ent0029" data-entity-2="ent0036" data-link-type="dependency" data-source-line="121" id="lnk54"><path d="M1241.57,743.1279 C1111.98,743.1279 827.22,743.1279 827.22,743.1279 C827.22,743.1279 827.22,839.4079 827.22,892.5479" fill="none" id="sync_handler-to-db_facade" style="stroke:#181818;stroke-width:1;"/><polygon fill="#181818" points="827.22,898.5479,831.22,889.5479,827.22,893.5479,823.22,889.5479,827.22,898.5479" style="stroke:#181818;stroke-width:1;"/><text fill="#000000" font-family="Monospace" font-size="13" lengthAdjust="spacing" textLength="35.009" x="883.7735" y="719.0249">insert</text><text fill="#000000" font-family="Monospace" font-size="13" lengthAdjust="spacing" textLength="105.1961" x="848.68" y="736.7309">PR/issues/history</text></g><!--link github_client to gh--><g class="link" data-entity-1="ent0030" data-entity-2="ent0044" data-link-type="dependency" data-source-line="132" id="lnk58"><path d="M1120.45,961.2479 C1120.45,1000.1079 1120.45,1061.1279 1120.45,1061.1279 C1120.45,1061.1279 1329.52,1061.1279 1445.04,1061.1279" fill="none" id="github_client-to-gh" style="stroke:#181818;stroke-width:1;"/><polygon fill="#181818" points="1451.04,1061.1279,1442.04,1057.1279,1446.04,1061.1279,1442.04,1065.1279,1451.04,1061.1279" style="stroke:#181818;stroke-width:1;"/><text fill="#000000" font-family="Monospace" font-size="13" lengthAdjust="spacing" textLength="30.771" x="1169.521" y="1037.0249">fetch</text><text fill="#000000" font-family="Monospace" font-size="13" lengthAdjust="spacing" textLength="96.2131" x="1136.8" y="1054.7309">users/PR/issues</text></g><!--link repo_adapter to local_repo--><g class="link" data-entity-1="ent0031" data-entity-2="ent0045" data-link-type="dependency" data-source-line="133" id="lnk59"><path d="M1379.96,930.1279 C1483.94,930.1279 1658.49,930.1279 1658.49,930.1279 C1658.49,930.1279 1658.49,976.1779 1658.49,1014.6179" fill="none" id="repo_adapter-to-local_repo" style="stroke:#181818;stroke-width:1;"/><polygon fill="#181818" points="1658.49,1020.6179,1662.49,1011.6179,1658.49,1015.6179,1654.49,1011.6179,1658.49,1020.6179" style="stroke:#181818;stroke-width:1;"/><text fill="#000000" font-family="Monospace" font-size="13" lengthAdjust="spacing" textLength="29.653" x="1495.481" y="906.0249">&#269;ten&#237;</text><text fill="#000000" font-family="Monospace" font-size="13" lengthAdjust="spacing" textLength="103.6751" x="1458.47" y="923.7309">commit&#367;/strom&#367;</text></g><!--link db_queries to sql_db--><g class="link" data-entity-1="ent0037" data-entity-2="ent0046" data-link-type="dependency" data-source-line="136" id="lnk60"><path d="M751.6,1092.4379 C751.6,1107.0079 751.6,1121.1279 751.6,1121.1279 C751.6,1121.1279 1498.8,1121.1279 1498.8,1121.1279 C1498.8,1121.1279 1498.8,1138.0179 1498.8,1159.2979" fill="none" id="db_queries-to-sql_db" style="stroke:#181818;stroke-width:1;"/><polygon fill="#181818" points="1498.8,1165.2979,1502.8,1156.2979,1498.8,1160.2979,1494.8,1156.2979,1498.8,1165.2979" style="stroke:#181818;stroke-width:1;"/><text fill="#000000" font-family="Monospace" font-size="13" lengthAdjust="spacing" textLength="83.4341" x="1046.94" y="1097.0249">SELECT&#160;/&#160;JOIN</text><text fill="#000000" font-family="Monospace" font-size="13" lengthAdjust="spacing" textLength="72.4751" x="1052.4195" y="1114.7309">/&#160;GROUP&#160;BY</text></g><!--link db_inserts to sql_db--><g class="link" data-entity-1="ent0038" data-entity-2="ent0046" data-link-type="dependency" data-source-line="137" id="lnk61"><path d="M900.11,1092.3879 C900.11,1133.7279 900.11,1201.1279 900.11,1201.1279 C900.11,1201.1279 1281.59,1201.1279 1445.06,1201.1279" fill="none" id="db_inserts-to-sql_db" style="stroke:#181818;stroke-width:1;"/><polygon fill="#181818" points="1451.06,1201.1279,1442.06,1197.1279,1446.06,1201.1279,1442.06,1205.1279,1451.06,1201.1279" style="stroke:#181818;stroke-width:1;"/><text fill="#000000" font-family="Monospace" font-size="13" lengthAdjust="spacing" textLength="102.6091" x="1016.22" y="1177.0249">INSERT&#160;/&#160;UPSERT</text><text fill="#000000" font-family="Monospace" font-size="13" lengthAdjust="spacing" textLength="23.062" x="1055.9935" y="1194.7309">/&#160;TX</text></g><!--link sync_handler to logs--><g class="link" data-entity-1="ent0029" data-entity-2="ent0047" data-link-type="dependency" data-source-line="140" id="lnk62"><path d="M1346.35,722.3679 C1346.35,699.3779 1346.35,672.1279 1346.35,672.1279 C1346.35,672.1279 1765.68,672.1279 1765.68,672.1279 C1765.68,672.1279 1765.68,692.2779 1765.68,714.9679" fill="none" id="sync_handler-to-logs" style="stroke:#181818;stroke-width:1;"/><polygon fill="#181818" points="1765.68,720.9679,1769.68,711.9679,1765.68,715.9679,1761.68,711.9679,1765.68,720.9679" style="stroke:#181818;stroke-width:1;"/><text fill="#000000" font-family="Monospace" font-size="13" lengthAdjust="spacing" textLength="59.865" x="1493.32" y="648.0249">info/error</text><text fill="#000000" font-family="Monospace" font-size="13" lengthAdjust="spacing" textLength="46.163" x="1500.171" y="665.7309">+&#160;trv&#225;n&#237;</text></g><!--reverse link logs to api_router--><g class="link" data-entity-1="ent0047" data-entity-2="ent0016" data-link-type="dependency" data-source-line="141" id="lnk64"><path d="M1807.21,714.6279 C1807.21,650.8779 1807.21,523.1279 1807.21,523.1279 C1807.21,523.1279 696.78,523.1279 696.78,523.1279 C696.78,523.1279 696.78,491.7179 696.78,466.4379" fill="none" id="logs-backto-api_router" style="stroke:#181818;stroke-width:1;"/><polygon fill="#181818" points="1807.21,720.6279,1811.21,711.6279,1807.21,715.6279,1803.21,711.6279,1807.21,720.6279" style="stroke:#181818;stroke-width:1;"/><text fill="#000000" font-family="Monospace" font-size="13" lengthAdjust="spacing" textLength="75.8031" x="1244.39" y="517.0249">request&#160;logs</text></g><!--reverse link main to compose--><g class="link" data-entity-1="ent0010" data-entity-2="ent0048" data-link-type="dependency" data-source-line="144" id="lnk66"><path d="M1385.71,288.1279 C1535.18,288.1279 1941.75,288.1279 1941.75,288.1279 C1941.75,288.1279 1941.75,1023.4379 1941.75,1174.2279" fill="none" id="main-backto-compose" style="stroke:#181818;stroke-width:1;"/><polygon fill="#181818" points="1379.71,288.1279,1388.71,292.1279,1384.71,288.1279,1388.71,284.1279,1379.71,288.1279" style="stroke:#181818;stroke-width:1;"/><text fill="#000000" font-family="Monospace" font-size="13" lengthAdjust="spacing" textLength="69.8491" x="1869.75" y="426.0549">orchestruje</text><text fill="#000000" font-family="Monospace" font-size="13" lengthAdjust="spacing" textLength="39.754" x="1884.7975" y="443.7609">slu&#382;bu</text></g><!--link compose to sql_db--><g class="link" data-entity-1="ent0048" data-entity-2="ent0046" data-link-type="dependency" data-source-line="145" id="lnk67"><path d="M1826.86,1174.2479 C1826.86,1158.2879 1826.86,1141.1279 1826.86,1141.1279 C1826.86,1141.1279 1546.1,1141.1279 1546.1,1141.1279 C1546.1,1141.1279 1546.1,1146.3979 1546.1,1159.1579" fill="none" id="compose-to-sql_db" style="stroke:#181818;stroke-width:1;"/><polygon fill="#181818" points="1546.1,1165.1579,1550.1,1156.1579,1546.1,1160.1579,1542.1,1156.1579,1546.1,1165.1579" style="stroke:#181818;stroke-width:1;"/><text fill="#000000" font-family="Monospace" font-size="13" lengthAdjust="spacing" textLength="91.1691" x="1597.02" y="1135.0249">orchestruje&#160;DB</text></g><!--reverse link sql_db to migrations--><g class="link" data-entity-1="ent0046" data-entity-2="ent0049" data-link-type="dependency" data-source-line="146" id="lnk69"><path d="M1599.71,1201.1279 C1612.43,1201.1279 1619.72,1201.1279 1632.54,1201.1279" fill="none" id="sql_db-backto-migrations" style="stroke:#181818;stroke-width:1;"/><polygon fill="#181818" points="1593.71,1201.1279,1602.71,1205.1279,1598.71,1201.1279,1602.71,1197.1279,1593.71,1201.1279" style="stroke:#181818;stroke-width:1;"/><text fill="#000000" font-family="Monospace" font-size="13" lengthAdjust="spacing" textLength="49.803" x="1588.2225" y="1218.0249">aplikace</text><text fill="#000000" font-family="Monospace" font-size="13" lengthAdjust="spacing" textLength="60.0081" x="1583.12" y="1235.7309">sch&#233;matu</text></g><!--link config_layer to api_layer--><!--link api_layer to agg_layer--><!--link agg_layer to db_layer--><?plantuml-src TLVTSjks4hxdK-ou5vMISPGV_oIP9ZEs9JTk4bkrdBHfrL4W4f9GaG0BW6gfCts3qmV8oStnPIyoVOBaHjPxTG7-WPJiiHDoiVjXiVjXTwcP3YbqgIOivAjFGAG_OvhETI89g5JfrTzH0gr814cukfP69H9SX4otFUzhUFRi6Voqkfw7931Bd2XD5jGyBfQpa0Q9qV3KdF6OI1A1cf50_Cxu52OaLDHPyKKK2qwv7kWKFPBKruHFGrSbe1EIXFfKS7rE8WglqH4L4z_L2HcdEeqf2AbdmhZuTlLPaYLV_GtBnSr7lRwsxaLqIIN4Ki22XlFLPmWOcHg01SJh3wjFeLYwi5m4LD4OzkuxGadut0WFN65CWi2Sxs4HdcCY5saZ3ENfu3yUe8O_dqgHyE14X4B2LwUFJv-S7faL8GCgS-dUa_tx-uVUdzk2TWkE_MdY79mSxXzsQpW1qMHC5BqLvj59jmdpUFzWx_vUtPrG9C5sZDxXwVwcAmzE3dlTWnh6H8IuVeiZ3quVdUvlE7BmkFV4WEG1x_sXgIKgcIDxrnyO49X890tbWSq3yJNQxRnPVs4Beccu0qH1egZqJ9fXvxHGdeSCOplahH_e60Rz8-Z0suHYjDHiB8WCsjPoGZqqrCXPDfrf41CZ0RYYtF0gmtYAWbrO2Bn3SDaRNC5H_omJfND9LPZyIcqIq5LauIIrQ-D48PkLWb1CsPm0wYnWZ451tnBFE6YsBNbsTFAoTzwr9yHBCITJFCfnfWsjoqJfpDqSm4OOVqlLjqedCUx_Kl09c-BrzwdLz-txA2HfdXPmQBTpObU7_BsIVYTJlIVLUyUoQT7ZMgOG2sOYQyqYmdXfP5usDuaYmWE5yPSKinQbvORPWhDb9h08EOnn0dP_dh4WeFmNcwJTvzK-vW5siIfnbDRi2zFDDUIQ4pdC9IoaqWi2BUiMYLddpliitFXyM-mkHO9CpOzYRB3AbYSnTj8gDCqkOifnoqvN-Cen3l2rPcq4RXnAW3Eb4ge0IM2pa3eWp2xLO39H4wD_sRca2qP_tmeZxLBzB5RKX3cAuu76E-ZOaZWUAIDpp7D9TPegEcLw6hxUek6uuMeKhAZ5RIj4xWeyXHrG0JOAR2UVmRIzdRfxcI-RbXLq5hzj2Wr-JIMTafk_J4th08QQOet8Nckqcp9TqMvwwvMr0SVUoR0A5ZSmUyE-rR4kZBGqLKAMASYakTe6OChz5tWpmfBCnXENp0erHhDCfMdzBTClal5HpCfoMqBWtomPboZPwyYtQXkNYSO2I41YhFaIMgZxi5s7Ad4agewiQkwD_QTsn38hhkUOyvXA9WBcOsKVShFMCULqmi8mmt2r2uXDjxUgDRogKs3rlr2ilt3i7hMC1-CouS7ujdntY-O-8Ju9Ygk6fcw6q3nRRbf_d-2HaSUjc_zgCpcrA_lViYKN8nTjL1oEtLKZ2CwACLCE1ijMN8nSrCHuZRqvJ6lUqn2FNvZPTwVWbISg8zpmRwk2ktcbxseu-rJwMnN-h6QICpwHE1lB91kiIJMaB0CfiB6RhfsDJ_c5ACU4ZFepBn-CTbw9-UhQpkeHanAfQeYpP7frlVvWadklewdI8oDLdM_CVy-p68N29w6LUruvyEqCldy5bY6hwoMQjvG_mv6Vm5qiD07z8ytOfNuBHy7O8r8pZ9ajt26E95aHml74vENEFNmejfegpzDYIlKifsGsMc7Fmh829oQjkBjCk6PHCMTO6QeM9ttDfcOAGUZ8F6ackEhSkOU-vAD2AQq2_VRef-DtS0Jh_v_rNxwpOVNCQ5ScQ69AjwcXainzCr2zEVCcjDuZifh_55vSNVLRWxPDHUUxmSMv_PuWop4ntmyiluiHSyUogaCubCXvzZIR035cGnvHBN208m5qZxrYjBYjxAWuML_hcu_MqgpbSr3YRIqbxeuPGOSS6tRMaJepfh32fSsXjL6ZB_1347ba4c26rmTjEo6ZXyyXYGtaI5CIZI8QZL6C6W_RqB-qAD2w2rWIwGYPmXPCfsrSVjI6l2CQ5HJijQ6edU3Fql7DnrzNdtoaK-OVexK9jxmlXhbUhQHMXNQ6vvrGxS-6t3hRAG_jkTMrDAXk11hU_6Nhsv2RP32z_WTReHJH-X-pVVSO5fZtrDjI4xAxWGY3tglUoHMswEykpiw7l0FVNbwywSFnEszBeIYjpiu7lKjZzQPl7epTrOzcprTYAXQMBT1QK9nT1J8-4Z0BoS88XKhQZVmNOuovVpRt4z6XfaWC-LtGCaFptBacf1F7G58ydDBv_VswKRQy_8h2RXBd4pJQY9me-0c3t0oJzPTnKcaM7fN7TTGDywix3BluOztPTVM9BJIc2kILIIV6ixw8X6y-wjLSfjZoi_JO3tfiWtWuh_RTKex_pZMtArurds_e52EKLmrJJPsYwth_0W00?></g></svg>