<?plantuml 1.2026.2?><svg xmlns="http://www.w3.org/2000/svg" xmlns:xlink="http://www.w3.org/1999/xlink" contentStyleType="text/css" data-diagram-type="DESCRIPTION" height="1028px" preserveAspectRatio="none" style="width:788px;height:1028px;background:#FFFFFF;" version="1.1" viewBox="0 0 788 1028" width="788px" zoomAndPan="magnify"><title>Architektura syst&#233;mu (zobecn&#283;n&#225; verze)</title><defs/><g><g class="title" data-source-line="1"><text fill="#000000" font-family="sans-serif" font-size="14" font-weight="bold" lengthAdjust="spacing" textLength="277.9515" x="248.467" y="24.9659">Architektura syst&#233;mu (zobecn&#283;n&#225; verze)</text></g><!--cluster be--><g class="cluster" data-qualified-name="be" data-source-line="18" id="ent0006"><path d="M91.4412,422.1779 L333.3593,422.1779 A3.75,3.75 0 0 1 335.8593,424.6779 L342.8593,447.2458 L648.4412,447.2458 A2.5,2.5 0 0 1 650.9412,449.7458 L650.9412,824.0879 A2.5,2.5 0 0 1 648.4412,826.5879 L91.4412,826.5879 A2.5,2.5 0 0 1 88.9412,824.0879 L88.9412,424.6779 A2.5,2.5 0 0 1 91.4412,422.1779" fill="none" style="stroke:#000000;stroke-width:1.5;"/><line style="stroke:#000000;stroke-width:1.5;" x1="88.9412" x2="342.8593" y1="447.2458" y2="447.2458"/><text fill="#000000" font-family="sans-serif" font-size="14" font-weight="bold" lengthAdjust="spacing" textLength="240.9181" x="92.9412" y="439.1439">Backend (Rust, modul&#225;rn&#237; monolit)</text></g><!--entity api--><g class="entity" data-qualified-name="be.api" data-source-line="20" id="ent0007"><rect fill="#F1F1F1" height="58.1358" rx="2.5" ry="2.5" style="stroke:#181818;stroke-width:0.5;" width="193.8513" x="389.0112" y="468.1779"/><text fill="#000000" font-family="sans-serif" font-size="14" lengthAdjust="spacing" textLength="120.4275" x="399.0112" y="493.1439">Prezenta&#269;n&#237; vrstva</text><text fill="#000000" font-family="sans-serif" font-size="14" lengthAdjust="spacing" textLength="173.8513" x="399.0112" y="512.2118">(REST API + OpenAPI docs)</text></g><!--entity input--><g class="entity" data-qualified-name="be.input" data-source-line="21" id="ent0008"><rect fill="#F1F1F1" height="58.1358" rx="2.5" ry="2.5" style="stroke:#181818;stroke-width:0.5;" width="215.1872" x="113.3412" y="468.1779"/><text fill="#000000" font-family="sans-serif" font-size="14" lengthAdjust="spacing" textLength="92.9456" x="123.3412" y="493.1439">Vstupn&#237; vrstva</text><text fill="#000000" font-family="sans-serif" font-size="14" lengthAdjust="spacing" textLength="195.1872" x="123.3412" y="512.2118">(ingest, sync trigger, validace)</text></g><!--entity agg--><g class="entity" data-qualified-name="be.agg" data-source-line="23" id="ent0009"><rect fill="#F1F1F1" height="58.1358" rx="2.5" ry="2.5" style="stroke:#181818;stroke-width:0.5;" width="292.397" x="112.7412" y="606.3179"/><text fill="#000000" font-family="sans-serif" font-size="14" lengthAdjust="spacing" textLength="109.9416" x="122.7412" y="631.2839">Agrega&#269;n&#237; vrstva</text><text fill="#000000" font-family="sans-serif" font-size="14" lengthAdjust="spacing" textLength="272.397" x="122.7412" y="650.3518">(transformace, business pravidla, backfill)</text></g><!--entity store--><g class="entity" data-qualified-name="be.store" data-source-line="24" id="ent0010"><rect fill="#F1F1F1" height="58.1358" rx="2.5" ry="2.5" style="stroke:#181818;stroke-width:0.5;" width="248.0171" x="134.9312" y="744.4579"/><text fill="#000000" font-family="sans-serif" font-size="14" lengthAdjust="spacing" textLength="88.6617" x="144.9312" y="769.4239">&#218;lo&#382;n&#225; vrstva</text><text fill="#000000" font-family="sans-serif" font-size="14" lengthAdjust="spacing" textLength="228.0171" x="144.9312" y="788.4918">(repozit&#225;&#345;e, transakce, SQL dotazy)</text></g><!--entity user--><g class="entity" data-qualified-name="user" data-source-line="11" id="ent0002"><ellipse cx="460.9381" cy="54.0679" fill="#F1F1F1" rx="8" ry="8" style="stroke:#181818;stroke-width:0.5;"/><path d="M460.9381,62.0679 L460.9381,89.0679 M447.9381,70.0679 L473.9381,70.0679 M460.9381,89.0679 L447.9381,104.0679 M460.9381,89.0679 L473.9381,104.0679" fill="none" style="stroke:#181818;stroke-width:0.5;"/><text fill="#000000" font-family="sans-serif" font-size="14" lengthAdjust="spacing" textLength="51.9538" x="434.9612" y="120.5339">U&#382;ivatel</text></g><!--entity gh--><g class="entity" data-qualified-name="gh" data-source-line="14" id="ent0003"><path d="M13.8765,219.2021 C17.8096,212.1119 23.7797,212.1136 28.2187,218.6705 C32.0113,211.9491 37.9459,210.3027 42.9406,217.3887 C47.7599,209.1827 52.9715,209.2812 58.2473,216.9486 C63.0363,211.1463 69.0544,210.2918 73.1403,217.7389 C77.4219,211.8039 82.0835,211.2226 86.9415,217.0633 C90.6083,210.9249 97.1805,210.0886 100.3938,217.513 C111.0246,220.8943 112.7161,228.7233 103.8479,235.7897 C110.151,241.8265 107.9497,248.4015 100.1004,250.9368 C96.7514,257.7223 91.3402,258.8494 85.8712,253.4029 C82.2878,258.8493 76.2168,259.0531 73.1006,252.889 C69.9425,261.0444 63.023,261.7585 58.5135,254.1386 C54.1366,259.4923 47.7873,258.8065 44.5958,252.6991 C38.4924,259.8429 33.5357,259.9295 28.5264,251.5653 C24.9273,257.6313 19.1062,257.4283 15.2802,251.8229 C6.4809,248.3249 7.5095,240.1062 14.192,235.5715 C6,230.7836 6.0549,224.2986 13.8765,219.2021" fill="#F1F1F1" style="stroke:#181818;stroke-width:0.5;"/><text fill="#000000" font-family="sans-serif" font-size="14" lengthAdjust="spacing" textLength="72.2957" x="20.7912" y="239.1339">GitHub API</text></g><!--entity repo--><g class="entity" data-qualified-name="repo" data-source-line="15" id="ent0004"><path d="M170.4012,205.1679 L211.4012,205.1679 A3.75,3.75 0 0 1 213.9012,207.6679 L220.9012,226.1679 L309.4868,226.1679 A2.5,2.5 0 0 1 311.9868,228.6679 L311.9868,259.7358 A2.5,2.5 0 0 1 309.4868,262.2358 L170.4012,262.2358 A2.5,2.5 0 0 1 167.9012,259.7358 L167.9012,207.6679 A2.5,2.5 0 0 1 170.4012,205.1679" fill="#F1F1F1" style="stroke:#181818;stroke-width:0.5;"/><line style="stroke:#181818;stroke-width:0.5;" x1="167.9012" x2="220.9012" y1="226.1679" y2="226.1679"/><text fill="#000000" font-family="sans-serif" font-size="14" lengthAdjust="spacing" textLength="114.0856" x="177.9012" y="248.1339">Lok&#225;ln&#237; git mirror</text></g><!--entity fe--><g class="entity" data-qualified-name="fe" data-source-line="16" id="ent0005"><rect fill="#F1F1F1" height="58.1358" rx="2.5" ry="2.5" style="stroke:#181818;stroke-width:0.5;" width="137.1376" x="392.3712" y="204.6379"/><text fill="#000000" font-family="sans-serif" font-size="14" lengthAdjust="spacing" textLength="60.3818" x="402.3712" y="229.6039">Frontend</text><text fill="#000000" font-family="sans-serif" font-size="14" lengthAdjust="spacing" textLength="117.1376" x="402.3712" y="248.6718">(SPA / dashboard)</text></g><!--entity db--><g class="entity" data-qualified-name="db" data-source-line="32" id="ent0014"><path d="M210.4712,973.5879 C210.4712,963.5879 258.9431,963.5879 258.9431,963.5879 C258.9431,963.5879 307.415,963.5879 307.415,973.5879 L307.415,1001.6558 C307.415,1011.6558 258.9431,1011.6558 258.9431,1011.6558 C258.9431,1011.6558 210.4712,1011.6558 210.4712,1001.6558 L210.4712,973.5879" fill="#F1F1F1" style="stroke:#181818;stroke-width:0.5;"/><path d="M210.4712,973.5879 C210.4712,983.5879 258.9431,983.5879 258.9431,983.5879 C258.9431,983.5879 307.415,983.5879 307.415,973.5879" fill="none" style="stroke:#181818;stroke-width:0.5;"/><text fill="#000000" font-family="sans-serif" font-size="14" lengthAdjust="spacing" textLength="76.9437" x="220.4712" y="1002.5539">PostgreSQL</text></g><!--entity logs--><g class="entity" data-qualified-name="logs" data-source-line="33" id="ent0015"><rect fill="#F1F1F1" height="42.0679" rx="2.5" ry="2.5" style="stroke:#181818;stroke-width:0.5;" width="148.0475" x="460.9112" y="966.5879"/><polygon fill="#F1F1F1" points="591.9588,971.5879,591.9588,985.5879,603.9588,985.5879,603.9588,977.5879,597.9588,971.5879,591.9588,971.5879" style="stroke:#181818;stroke-width:0.5;"/><line style="stroke:#181818;stroke-width:0.5;" x1="597.9588" x2="597.9588" y1="971.5879" y2="977.5879"/><line style="stroke:#181818;stroke-width:0.5;" x1="603.9588" x2="597.9588" y1="977.5879" y2="977.5879"/><text fill="#000000" font-family="sans-serif" font-size="14" lengthAdjust="spacing" textLength="118.0475" x="470.9112" y="994.5539">Logy / monitoring</text></g><g class="entity" data-qualified-name="GMN26" data-source-line="59" id="ent0027"><path d="M552.0012,342.7679 L552.0012,388.1799 L781.8854,388.1799 L781.8854,352.7679 L771.8854,342.7679 L552.0012,342.7679" fill="#FEFFDD" style="stroke:#181818;stroke-width:0.5;"/><path d="M771.8854,342.7679 L771.8854,352.7679 L781.8854,352.7679 L771.8854,342.7679" fill="#FEFFDD" style="stroke:#181818;stroke-width:1;"/><text fill="#000000" font-family="sans-serif" font-size="13" lengthAdjust="spacing" textLength="208.8842" x="558.0012" y="361.6649">Backend je jeden deployable celek</text><text fill="#000000" font-family="sans-serif" font-size="13" lengthAdjust="spacing" textLength="177.8012" x="558.0012" y="379.3709">s intern&#237;m d&#283;len&#237;m do vrstev.</text></g><!--link api to agg--><!--link input to agg--><!--link input to agg--><g class="link" data-entity-1="ent0008" data-entity-2="ent0009" data-link-type="dependency" data-source-line="46" id="lnk20"><path d="M256.8012,526.5479 C256.8012,549.9879 256.8012,576.6979 256.8012,600.1379" fill="none" id="input-to-agg-1" style="stroke:#181818;stroke-width:1;"/><polygon fill="#181818" points="256.8012,606.1379,260.8012,597.1379,256.8012,601.1379,252.8012,597.1379,256.8012,606.1379" style="stroke:#181818;stroke-width:1;"/><text fill="#000000" font-family="sans-serif" font-size="13" lengthAdjust="spacing" textLength="47.372" x="193.2973" y="544.2349">p&#345;ed&#225;n&#237;</text><text fill="#000000" font-family="sans-serif" font-size="13" lengthAdjust="spacing" textLength="78.3641" x="177.8012" y="561.9409">surov&#253;ch dat</text></g><!--link agg to store--><!--link agg to store--><g class="link" data-entity-1="ent0009" data-entity-2="ent0010" data-link-type="dependency" data-source-line="49" id="lnk22"><path d="M300.2712,664.6779 C300.2712,688.1279 300.2712,714.8379 300.2712,738.2679" fill="none" id="agg-to-store-1" style="stroke:#181818;stroke-width:1;"/><polygon fill="#181818" points="300.2712,744.2679,304.2712,735.2679,300.2712,739.2679,296.2712,735.2679,300.2712,744.2679" style="stroke:#181818;stroke-width:1;"/><text fill="#000000" font-family="sans-serif" font-size="13" lengthAdjust="spacing" textLength="44.083" x="199.4443" y="682.3749">ulo&#382;en&#237;</text><text fill="#000000" font-family="sans-serif" font-size="13" lengthAdjust="spacing" textLength="156.4291" x="143.2712" y="700.0809">normalizovan&#253;ch ud&#225;lost&#237;</text></g><!--link user to fe--><g class="link" data-entity-1="ent0002" data-entity-2="ent0005" data-link-type="dependency" data-source-line="39" id="lnk16"><path d="M460.9412,124.9279 C460.9412,149.8579 460.9412,175.4379 460.9412,198.1479" fill="none" id="user-to-fe" style="stroke:#181818;stroke-width:1;"/><polygon fill="#181818" points="460.9412,204.1479,464.9412,195.1479,460.9412,199.1479,456.9412,195.1479,460.9412,204.1479" style="stroke:#181818;stroke-width:1;"/><text fill="#000000" font-family="sans-serif" font-size="13" lengthAdjust="spacing" textLength="93.0411" x="366.9412" y="160.4349">pr&#225;ce s aplikac&#237;</text></g><!--link fe to api--><g class="link" data-entity-1="ent0005" data-entity-2="ent0007" data-link-type="dependency" data-source-line="41" id="lnk17"><path d="M460.9412,263.1679 C460.9412,313.9379 460.9412,411.3379 460.9412,461.9779" fill="none" id="fe-to-api" style="stroke:#181818;stroke-width:1;"/><polygon fill="#181818" points="460.9412,467.9779,464.9412,458.9779,460.9412,462.9779,456.9412,458.9779,460.9412,467.9779" style="stroke:#181818;stroke-width:1;"/><text fill="#000000" font-family="sans-serif" font-size="13" lengthAdjust="spacing" textLength="65.0131" x="379.3082" y="343.4649">HTTP REST</text><text fill="#000000" font-family="sans-serif" font-size="13" lengthAdjust="spacing" textLength="97.7471" x="362.9412" y="361.1709">(dotazy na data)</text></g><!--link gh to input--><g class="link" data-entity-1="ent0003" data-entity-2="ent0008" data-link-type="dependency" data-source-line="43" id="lnk18"><path d="M108.5112,233.6579 C125.7312,233.6579 140.6212,233.6579 140.6212,233.6579 C140.6212,233.6579 140.6212,392.9979 140.6212,461.7779" fill="none" id="gh-to-input" style="stroke:#181818;stroke-width:1;"/><polygon fill="#181818" points="140.6212,467.7779,144.6212,458.7779,140.6212,462.7779,136.6212,458.7779,140.6212,467.7779" style="stroke:#181818;stroke-width:1;"/><text fill="#000000" font-family="sans-serif" font-size="13" lengthAdjust="spacing" textLength="59.0721" x="62.1917" y="312.5549">poskytuje</text><text fill="#000000" font-family="sans-serif" font-size="13" lengthAdjust="spacing" textLength="96.2131" x="43.6212" y="330.2609">PR/issues/users</text></g><!--link repo to input--><g class="link" data-entity-1="ent0004" data-entity-2="ent0008" data-link-type="dependency" data-source-line="44" id="lnk19"><path d="M239.9412,262.6579 C239.9412,313.2079 239.9412,410.9879 239.9412,461.8379" fill="none" id="repo-to-input" style="stroke:#181818;stroke-width:1;"/><polygon fill="#181818" points="239.9412,467.8379,243.9412,458.8379,239.9412,462.8379,235.9412,458.8379,239.9412,467.8379" style="stroke:#181818;stroke-width:1;"/><text fill="#000000" font-family="sans-serif" font-size="13" lengthAdjust="spacing" textLength="59.0721" x="168.0182" y="343.1449">poskytuje</text><text fill="#000000" font-family="sans-serif" font-size="13" lengthAdjust="spacing" textLength="83.2261" x="155.9412" y="360.8509">historii a diffy</text></g><!--link api to store--><g class="link" data-entity-1="ent0007" data-entity-2="ent0010" data-link-type="dependency" data-source-line="47" id="lnk21"><path d="M433.0312,526.5679 C433.0312,597.7079 433.0312,773.6579 433.0312,773.6579 C433.0312,773.6579 417.2712,773.6579 389.1412,773.6579" fill="none" id="api-to-store" style="stroke:#181818;stroke-width:1;"/><polygon fill="#181818" points="383.1412,773.6579,392.1412,777.6579,388.1412,773.6579,392.1412,769.6579,383.1412,773.6579" style="stroke:#181818;stroke-width:1;"/><text fill="#000000" font-family="sans-serif" font-size="13" lengthAdjust="spacing" textLength="37.869" x="354.6358" y="689.9549">&#269;ten&#237; /</text><text fill="#000000" font-family="sans-serif" font-size="13" lengthAdjust="spacing" textLength="117.0781" x="315.0312" y="707.6609">agregovan&#233; dotazy</text></g><!--link store to db--><g class="link" data-entity-1="ent0010" data-entity-2="ent0014" data-link-type="dependency" data-source-line="52" id="lnk23"><path d="M258.9412,802.8479 C258.9412,845.4479 258.9412,917.6879 258.9412,957.2879" fill="none" id="store-to-db" style="stroke:#181818;stroke-width:1;"/><polygon fill="#181818" points="258.9412,963.2879,262.9412,954.2879,258.9412,958.2879,254.9412,954.2879,258.9412,963.2879" style="stroke:#181818;stroke-width:1;"/><text fill="#000000" font-family="sans-serif" font-size="13" lengthAdjust="spacing" textLength="160.6282" x="97.9412" y="878.9649">SELECT / INSERT / UPDATE</text></g><!--link agg to logs--><g class="link" data-entity-1="ent0009" data-entity-2="ent0015" data-link-type="dependency" data-source-line="55" id="lnk24"><path d="M394.0412,664.8179 C394.0412,749.4779 394.0412,987.6579 394.0412,987.6579 C394.0412,987.6579 420.8312,987.6579 454.7812,987.6579" fill="none" id="agg-to-logs" style="stroke:#181818;stroke-width:1;"/><polygon fill="#181818" points="460.7812,987.6579,451.7812,983.6579,455.7812,987.6579,451.7812,991.6579,460.7812,987.6579" style="stroke:#181818;stroke-width:1;"/><text fill="#000000" font-family="sans-serif" font-size="13" lengthAdjust="spacing" textLength="96.2001" x="297.0412" y="837.5049">metriky + chyby</text><text fill="#000000" font-family="sans-serif" font-size="13" lengthAdjust="spacing" textLength="46.163" x="322.0598" y="855.2109">+ trv&#225;n&#237;</text></g><!--link api to logs--><g class="link" data-entity-1="ent0007" data-entity-2="ent0015" data-link-type="dependency" data-source-line="56" id="lnk25"><path d="M521.8912,526.4579 C521.8912,616.3579 521.8912,881.5679 521.8912,960.0979" fill="none" id="api-to-logs" style="stroke:#181818;stroke-width:1;"/><polygon fill="#181818" points="521.8912,966.0979,525.8912,957.0979,521.8912,961.0979,517.8912,957.0979,521.8912,966.0979" style="stroke:#181818;stroke-width:1;"/><text fill="#000000" font-family="sans-serif" font-size="13" lengthAdjust="spacing" textLength="55.198" x="463.5562" y="724.1749">request /</text><text fill="#000000" font-family="sans-serif" font-size="13" lengthAdjust="spacing" textLength="60.528" x="460.8912" y="741.8809">error logy</text></g><!--link GMN26 to be--><g class="link" data-entity-1="ent0027" data-entity-2="ent0006" data-link-type="association" data-source-line="59" id="lnk28"><path d="M642.9412,388.4279 C642.9412,397.2779 642.9412,407.9573 642.9412,419.1224 C642.9412,419.8203 642.9412,420.52 642.9412,421.2213 C642.9412,421.3966 642.9412,446.6399 642.9412,446.8155" fill="none" id="GMN26-be" style="stroke:#181818;stroke-width:1;stroke-dasharray:7,7;"/></g><?plantuml-src bLJ1Zjis4BtpAmQ-P8EikpaLHO0MS5gt2R1etRMJIzq39OuahYXI9IcrSj1Fo0UaUzAnXtn2Sv7zNvcHxCQR842xC1O4DVFcSTwRYJeQX8LF2nsnZ8sN4BeGXx-h1YvsBi7Kxk_iq4EBVeSFXGYbjhNqie9GIEL-rpQ7J9g0PrzILzNEeeths16wnpHAcvlp4ACjngv6S3uMJeW7y79_5m_zy1OgtA7leFOE3DRZ5PrLT-Yj2n6KbZaXD6TWrYaCMCENZyyklRGbNtxrM0YPHkTXzkBmJhSoefc13D04z5nu-KT4RwdAJdbtYs2bWaIc9Lg5bKYDQnJCVj3nMPF0OlLypCqBaJcZa42lNJdqXlDp7Q7ItZi_ndYidVYt5J3xtZiR2NHhBzQh1Lo1ag58dFJguHYVeH0rrPKvmkpfH00kRfeGBw5ogZ53FzAid7L6noafGNWb0EXtLcdbgOKsolrhZczzYAsagZVBzOPV08_WfnejdvHBmmGaQtqVv6M8JNqldwH69XCwcqBqEi_HNq8hZLOonGc6kj_4JmWjSe_vntGYAHGovojAleIa2MI944XhsMfbvEKeGgQDEHBCy_kWmr_67TwDtZn1SijtEWxzuGr1ZWLaoUZhdw_fhL7kkWaia1zmela0rgNloF7qabqo-Qu9jJky6Nerz2VAs4Bj50HCN4DPr2wO_r9efT3-IcDWvzyS6OuT-Cmt-l_9budAdq8e6MKY0uc_8fzJnuZqI5ObGlgeCt8nsotlo3ja0as99CaOObmUsCjV_-S_dhZnlHAYAycB4VvVlk3vWJcz84DuGcqR-XI1ZMHqATFXhH3qOSu1tAmdy6opMG5xa8IQjA1HuyAIrafUJA5JzmZEXRABpIrkxUhcIeVGOBZYYa6mo9yDBZJtKsjwbj9PrWbnr6FIW8F96vEkMniQxzhXdxHW6cBKT7wIX4BthsbUIV-hhPNiODTAIpwPoDDMOJNFmXls8ux0bcrjz6xCOFo6IXgIbTiYfeInb4eeSRsyNdwx8LMV_xXUtl3XnUgxnMOfJZKuaYMcs0ffyigEPZWjkgJRsaVaytPypuS776Cz_aPjYymVUItnFV6sBYA9NeFBQ7-GBK_BXfRVBP8rGM5jN2SJMjuf6YmfXaTxsfCLgFsTmUdaZiFnXM00HXRl0G00?></g></svg>