<?plantuml 1.2026.2?><svg xmlns="http://www.w3.org/2000/svg" xmlns:xlink="http://www.w3.org/1999/xlink" contentStyleType="text/css" data-diagram-type="CLASS" height="479px" preserveAspectRatio="none" style="width:472px;height:479px;background:#FFFFFF;" version="1.1" viewBox="0 0 472 479" width="472px" zoomAndPan="magnify"><title>Zjednodu&#353;en&#253; ER diagram</title><defs/><g><g class="title" data-source-line="1"><text fill="#000000" font-family="sans-serif" font-size="14" font-weight="bold" lengthAdjust="spacing" textLength="181.2748" x="138.6734" y="24.9659">Zjednodu&#353;en&#253; ER diagram</text></g><!--class teams--><g class="entity" data-qualified-name="teams" data-source-line="13" id="ent0002"><rect fill="#F1F1F1" height="56.1358" rx="2.5" ry="2.5" style="stroke:#181818;stroke-width:0.5;" width="132.7776" x="14.25" y="212.8679"/><text fill="#000000" font-family="sans-serif" font-size="14" lengthAdjust="spacing" textLength="40.5999" x="60.3389" y="232.8339">teams</text><line style="stroke:#181818;stroke-width:0.5;" x1="15.25" x2="146.0276" y1="241.9358" y2="241.9358"/><g data-visibility-modifier="IE_MANDATORY"><ellipse cx="25.25" cy="256.9698" fill="#000000" rx="3" ry="3" style="stroke:#000000;stroke-width:1;"/></g><text fill="#000000" font-family="sans-serif" font-size="14" lengthAdjust="spacing" textLength="106.7776" x="34.25" y="260.9018">team_name (PK)</text></g><!--class ct--><g class="entity" data-qualified-name="ct" data-source-line="17" id="ent0003"><rect fill="#F1F1F1" height="75.2038" rx="2.5" ry="2.5" style="stroke:#181818;stroke-width:0.5;" width="147.2675" x="7" y="51.0679"/><text fill="#000000" font-family="sans-serif" font-size="14" lengthAdjust="spacing" textLength="128.3795" x="16.444" y="71.0339">contributors_teams</text><line style="stroke:#181818;stroke-width:0.5;" x1="8" x2="153.2675" y1="80.1358" y2="80.1358"/><g data-visibility-modifier="IE_MANDATORY"><ellipse cx="18" cy="95.1698" fill="#000000" rx="3" ry="3" style="stroke:#000000;stroke-width:1;"/></g><text fill="#000000" font-family="sans-serif" font-size="14" lengthAdjust="spacing" textLength="61.8658" x="27" y="99.1018">team (FK)</text><g data-visibility-modifier="IE_MANDATORY"><ellipse cx="18" cy="114.2377" fill="#000000" rx="3" ry="3" style="stroke:#000000;stroke-width:1;"/></g><text fill="#000000" font-family="sans-serif" font-size="14" lengthAdjust="spacing" textLength="121.2675" x="27" y="118.1697">contributor_id (FK)</text></g><!--class contributors--><g class="entity" data-qualified-name="contributors" data-source-line="22" id="ent0004"><rect fill="#F1F1F1" height="83.2038" rx="2.5" ry="2.5" style="stroke:#181818;stroke-width:0.5;" width="116.8036" x="194.23" y="47.0679"/><text fill="#000000" font-family="sans-serif" font-size="14" lengthAdjust="spacing" textLength="81.5637" x="211.85" y="67.0339">contributors</text><line style="stroke:#181818;stroke-width:0.5;" x1="195.23" x2="310.0336" y1="76.1358" y2="76.1358"/><g data-visibility-modifier="IE_MANDATORY"><ellipse cx="205.23" cy="91.1698" fill="#000000" rx="3" ry="3" style="stroke:#000000;stroke-width:1;"/></g><text fill="#000000" font-family="sans-serif" font-size="14" lengthAdjust="spacing" textLength="90.8036" x="214.23" y="95.1018">github_id (PK)</text><line style="stroke:#181818;stroke-width:1;" x1="195.23" x2="310.0336" y1="103.2038" y2="103.2038"/><text fill="#000000" font-family="sans-serif" font-size="14" lengthAdjust="spacing" textLength="86.8977" x="200.23" y="122.1697">github_name</text></g><!--class issues--><g class="entity" data-qualified-name="issues" data-source-line="28" id="ent0005"><rect fill="#F1F1F1" height="121.3396" rx="2.5" ry="2.5" style="stroke:#181818;stroke-width:0.5;" width="122.6976" x="191.28" y="180.2679"/><text fill="#000000" font-family="sans-serif" font-size="14" lengthAdjust="spacing" textLength="40.2778" x="232.4899" y="200.2339">issues</text><line style="stroke:#181818;stroke-width:0.5;" x1="192.28" x2="312.9776" y1="209.3358" y2="209.3358"/><g data-visibility-modifier="IE_MANDATORY"><ellipse cx="202.28" cy="224.3698" fill="#000000" rx="3" ry="3" style="stroke:#000000;stroke-width:1;"/></g><text fill="#000000" font-family="sans-serif" font-size="14" lengthAdjust="spacing" textLength="96.6976" x="211.28" y="228.3018">repository (PK)</text><g data-visibility-modifier="IE_MANDATORY"><ellipse cx="202.28" cy="243.4377" fill="#000000" rx="3" ry="3" style="stroke:#000000;stroke-width:1;"/></g><text fill="#000000" font-family="sans-serif" font-size="14" lengthAdjust="spacing" textLength="81.1857" x="211.28" y="247.3697">issue_id (PK)</text><line style="stroke:#181818;stroke-width:1;" x1="192.28" x2="312.9776" y1="255.4717" y2="255.4717"/><text fill="#000000" font-family="sans-serif" font-size="14" lengthAdjust="spacing" textLength="30.9259" x="197.28" y="274.4376">is_pr</text><text fill="#000000" font-family="sans-serif" font-size="14" lengthAdjust="spacing" textLength="87.3177" x="197.28" y="293.5055">current_state</text></g><!--class labels--><g class="entity" data-qualified-name="labels" data-source-line="36" id="ent0006"><rect fill="#F1F1F1" height="121.3396" rx="2.5" ry="2.5" style="stroke:#181818;stroke-width:0.5;" width="135.7095" x="9.78" y="351.6079"/><text fill="#000000" font-family="sans-serif" font-size="14" lengthAdjust="spacing" textLength="129.7095" x="12.78" y="371.5739">issue_labels_history</text><line style="stroke:#181818;stroke-width:0.5;" x1="10.78" x2="144.4895" y1="380.6758" y2="380.6758"/><g data-visibility-modifier="IE_MANDATORY"><ellipse cx="20.78" cy="395.7098" fill="#000000" rx="3" ry="3" style="stroke:#000000;stroke-width:1;"/></g><text fill="#000000" font-family="sans-serif" font-size="14" lengthAdjust="spacing" textLength="79.9817" x="29.78" y="399.6418">issue_id (FK)</text><line style="stroke:#181818;stroke-width:1;" x1="10.78" x2="144.4895" y1="407.7438" y2="407.7438"/><text fill="#000000" font-family="sans-serif" font-size="14" lengthAdjust="spacing" textLength="75.2917" x="15.78" y="426.7097">label_name</text><text fill="#000000" font-family="sans-serif" font-size="14" lengthAdjust="spacing" textLength="40.3618" x="15.78" y="445.7776">action</text><text fill="#000000" font-family="sans-serif" font-size="14" lengthAdjust="spacing" textLength="30.9259" x="15.78" y="464.8455">is_pr</text></g><!--class events--><g class="entity" data-qualified-name="events" data-source-line="44" id="ent0007"><rect fill="#F1F1F1" height="102.2717" rx="2.5" ry="2.5" style="stroke:#181818;stroke-width:0.5;" width="134.0295" x="185.62" y="361.1379"/><text fill="#000000" font-family="sans-serif" font-size="14" lengthAdjust="spacing" textLength="128.0295" x="188.62" y="381.1039">issue_event_history</text><line style="stroke:#181818;stroke-width:0.5;" x1="186.62" x2="318.6495" y1="390.2058" y2="390.2058"/><g data-visibility-modifier="IE_MANDATORY"><ellipse cx="196.62" cy="405.2398" fill="#000000" rx="3" ry="3" style="stroke:#000000;stroke-width:1;"/></g><text fill="#000000" font-family="sans-serif" font-size="14" lengthAdjust="spacing" textLength="79.9817" x="205.62" y="409.1718">issue_id (FK)</text><line style="stroke:#181818;stroke-width:1;" x1="186.62" x2="318.6495" y1="417.2738" y2="417.2738"/><text fill="#000000" font-family="sans-serif" font-size="14" lengthAdjust="spacing" textLength="71.5257" x="191.62" y="436.2397">event_type</text><text fill="#000000" font-family="sans-serif" font-size="14" lengthAdjust="spacing" textLength="30.9259" x="191.62" y="455.3076">is_pr</text></g><!--class files--><g class="entity" data-qualified-name="files" data-source-line="51" id="ent0008"><rect fill="#F1F1F1" height="83.2038" rx="2.5" ry="2.5" style="stroke:#181818;stroke-width:0.5;" width="105.9817" x="359.64" y="370.6779"/><text fill="#000000" font-family="sans-serif" font-size="14" lengthAdjust="spacing" textLength="72.3097" x="376.476" y="390.6439">file_activity</text><line style="stroke:#181818;stroke-width:0.5;" x1="360.64" x2="464.6217" y1="399.7458" y2="399.7458"/><g data-visibility-modifier="IE_MANDATORY"><ellipse cx="370.64" cy="414.7798" fill="#000000" rx="3" ry="3" style="stroke:#000000;stroke-width:1;"/></g><text fill="#000000" font-family="sans-serif" font-size="14" lengthAdjust="spacing" textLength="79.9817" x="379.64" y="418.7118">issue_id (FK)</text><line style="stroke:#181818;stroke-width:1;" x1="360.64" x2="464.6217" y1="426.8138" y2="426.8138"/><text fill="#000000" font-family="sans-serif" font-size="14" lengthAdjust="spacing" textLength="56.3218" x="365.64" y="445.7797">file_path</text></g><!--link ct to teams--><g class="link" data-entity-1="ent0003" data-entity-2="ent0002" data-link-type="crowfoot" data-source-line="58" id="lnk10"><path codeLine="58" d="M80.63,144.6979 C80.63,171.2979 80.63,180.2679 80.63,204.4779" fill="none" id="ct-teams" style="stroke:#181818;stroke-width:1;"/><line style="stroke:#181818;stroke-width:1;" x1="80.63" x2="74.63" y1="134.6979" y2="126.6979"/><line style="stroke:#181818;stroke-width:1;" x1="80.63" x2="86.63" y1="134.6979" y2="126.6979"/><line style="stroke:#181818;stroke-width:1;" x1="80.63" x2="80.63" y1="134.6979" y2="126.6979"/><ellipse cx="80.63" cy="140.6979" fill="none" rx="4" ry="4" style="stroke:#181818;stroke-width:1;"/><line style="stroke:#181818;stroke-width:1;" x1="84.63" x2="76.63" y1="208.4779" y2="208.4779"/><line style="stroke:#181818;stroke-width:1;" x1="84.63" x2="76.63" y1="205.4779" y2="205.4779"/><line style="stroke:#181818;stroke-width:1;" x1="80.63" x2="80.63" y1="204.4779" y2="212.4779"/></g><!--link ct to contributors--><g class="link" data-entity-1="ent0003" data-entity-2="ent0004" data-link-type="crowfoot" data-source-line="59" id="lnk12"><path codeLine="59" d="M172.58,88.9479 C185.69,88.9479 173.18,88.9479 185.8,88.9479" fill="none" id="ct-contributors" style="stroke:#181818;stroke-width:1;"/><line style="stroke:#181818;stroke-width:1;" x1="162.58" x2="154.58" y1="88.9479" y2="94.9479"/><line style="stroke:#181818;stroke-width:1;" x1="162.58" x2="154.58" y1="88.9479" y2="82.9479"/><line style="stroke:#181818;stroke-width:1;" x1="162.58" x2="154.58" y1="88.9479" y2="88.9479"/><ellipse cx="168.58" cy="88.9479" fill="none" rx="4" ry="4" style="stroke:#181818;stroke-width:1;"/><line style="stroke:#181818;stroke-width:1;" x1="189.8" x2="189.8" y1="84.9479" y2="92.9479"/><line style="stroke:#181818;stroke-width:1;" x1="186.8" x2="186.8" y1="84.9479" y2="92.9479"/><line style="stroke:#181818;stroke-width:1;" x1="185.8" x2="193.8" y1="88.9479" y2="88.9479"/></g><!--link contributors to issues--><g class="link" data-entity-1="ent0004" data-entity-2="ent0005" data-link-type="crowfoot" data-source-line="61" id="lnk13"><path codeLine="61" d="M252.63,138.6779 C252.63,153.9079 252.63,145.4379 252.63,161.9679" fill="none" id="contributors-issues" style="stroke:#181818;stroke-width:1;"/><line style="stroke:#181818;stroke-width:1;" x1="248.63" x2="256.63" y1="134.6779" y2="134.6779"/><line style="stroke:#181818;stroke-width:1;" x1="248.63" x2="256.63" y1="137.6779" y2="137.6779"/><line style="stroke:#181818;stroke-width:1;" x1="252.63" x2="252.63" y1="138.6779" y2="130.6779"/><line style="stroke:#181818;stroke-width:1;" x1="252.63" x2="258.63" y1="171.9679" y2="179.9679"/><line style="stroke:#181818;stroke-width:1;" x1="252.63" x2="246.63" y1="171.9679" y2="179.9679"/><line style="stroke:#181818;stroke-width:1;" x1="252.63" x2="252.63" y1="171.9679" y2="179.9679"/><ellipse cx="252.63" cy="165.9679" fill="none" rx="4" ry="4" style="stroke:#181818;stroke-width:1;"/><text fill="#000000" font-family="sans-serif" font-size="13" lengthAdjust="spacing" textLength="33.254" x="219.01" y="151.2149">autor</text></g><!--link issues to events--><g class="link" data-entity-1="ent0005" data-entity-2="ent0007" data-link-type="crowfoot" data-source-line="63" id="lnk14"><path codeLine="63" d="M273.08,309.8279 C273.08,329.0679 273.08,324.1279 273.08,342.6479" fill="none" id="issues-events" style="stroke:#181818;stroke-width:1;"/><line style="stroke:#181818;stroke-width:1;" x1="269.08" x2="277.08" y1="305.8279" y2="305.8279"/><line style="stroke:#181818;stroke-width:1;" x1="269.08" x2="277.08" y1="308.8279" y2="308.8279"/><line style="stroke:#181818;stroke-width:1;" x1="273.08" x2="273.08" y1="309.8279" y2="301.8279"/><line style="stroke:#181818;stroke-width:1;" x1="273.08" x2="279.08" y1="352.6479" y2="360.6479"/><line style="stroke:#181818;stroke-width:1;" x1="273.08" x2="267.08" y1="352.6479" y2="360.6479"/><line style="stroke:#181818;stroke-width:1;" x1="273.08" x2="273.08" y1="352.6479" y2="360.6479"/><ellipse cx="273.08" cy="346.6479" fill="none" rx="4" ry="4" style="stroke:#181818;stroke-width:1;"/></g><!--link issues to labels--><g class="link" data-entity-1="ent0005" data-entity-2="ent0006" data-link-type="crowfoot" data-source-line="64" id="lnk15"><path codeLine="64" d="M232.18,309.8079 C232.18,337.3979 232.18,355.9479 232.18,355.9479 C232.18,355.9479 205.27,355.9479 163.87,355.9479" fill="none" id="issues-labels" style="stroke:#181818;stroke-width:1;"/><line style="stroke:#181818;stroke-width:1;" x1="228.18" x2="236.18" y1="305.8079" y2="305.8079"/><line style="stroke:#181818;stroke-width:1;" x1="228.18" x2="236.18" y1="308.8079" y2="308.8079"/><line style="stroke:#181818;stroke-width:1;" x1="232.18" x2="232.18" y1="309.8079" y2="301.8079"/><line style="stroke:#181818;stroke-width:1;" x1="153.87" x2="145.87" y1="355.9479" y2="361.9479"/><line style="stroke:#181818;stroke-width:1;" x1="153.87" x2="145.87" y1="355.9479" y2="349.9479"/><line style="stroke:#181818;stroke-width:1;" x1="153.87" x2="145.87" y1="355.9479" y2="355.9479"/><ellipse cx="159.87" cy="355.9479" fill="none" rx="4" ry="4" style="stroke:#181818;stroke-width:1;"/></g><!--link issues to files--><g class="link" data-entity-1="ent0005" data-entity-2="ent0008" data-link-type="crowfoot" data-source-line="65" id="lnk16"><path codeLine="65" d="M322.04,240.9479 C367.16,240.9479 412.63,240.9479 412.63,240.9479 C412.63,240.9479 412.63,301.6479 412.63,352.3679" fill="none" id="issues-files" style="stroke:#181818;stroke-width:1;"/><line style="stroke:#181818;stroke-width:1;" x1="318.04" x2="318.04" y1="244.9479" y2="236.9479"/><line style="stroke:#181818;stroke-width:1;" x1="321.04" x2="321.04" y1="244.9479" y2="236.9479"/><line style="stroke:#181818;stroke-width:1;" x1="322.04" x2="314.04" y1="240.9479" y2="240.9479"/><line style="stroke:#181818;stroke-width:1;" x1="412.63" x2="418.63" y1="362.3679" y2="370.3679"/><line style="stroke:#181818;stroke-width:1;" x1="412.63" x2="406.63" y1="362.3679" y2="370.3679"/><line style="stroke:#181818;stroke-width:1;" x1="412.63" x2="412.63" y1="362.3679" y2="370.3679"/><ellipse cx="412.63" cy="356.3679" fill="none" rx="4" ry="4" style="stroke:#181818;stroke-width:1;"/></g><?plantuml-src VPCzRjmm48LxdcAmZHq30bmaJUh4ZHiZ0LAa4IXfrc94aGGvseIoSuGzn1x0Ht0QxTuh_56yIdRZHkAycVdUYAH8a4Ju-WqRfPlXi4CrFSF7Jz08VczvpzW5VEwif-a9nieJxhUXe6v1T5e11sEdtTXaQR-TTYuM6gj381mTTY7QZAt4XhMYGQY5hINcDVQ6FFJOLsWTSvrGXWT7a48XUOEWBRKw3d2hUyCxKW7MuuZMG-YVTbBDNXkf3xymHeq6mXyqB73Xiz2XWRVN2z5orKNntNNaVy2rKA8E8oaI14OF8uA3JavF-wtUJC-zWCgFoZlWP4Kra6UfrCEAaFTk1Tn1Mi430xXAwrBn7k7oxlOD-ybUwckjCa9RLnwRQrfqmkLDQ8hHeheKJTR_0ykOXJ03xmMrGvMwxnArAC9ZLkE8Iw1mRi2CoiiPOj5e9mBL_w5SvO9_kSALnePtFLWReAKZJgSEfUGLIbUsuOu4PlBBqkntPDySsQaYZmp0Qn9QlJYUEE0csYyDalAgGUw9T-ySToqabj5s4y94ZCghmDHYEBMHSn6qee0lFFn7uS-HtEk1aiRorNbyB0PJw8Tm6TXV1naI4jSqfqvoZVwkOcu-iVSGXel95MEpj2ZAkt0caVV_J29z9ViD?></g></svg>